<?xml version="1.0" standalone="no"?>
<!DOCTYPE svg PUBLIC "-//W3C//DTD SVG 20010904//EN"
 "http://www.w3.org/TR/2001/REC-SVG-20010904/DTD/svg10.dtd">
<svg version="1.0" xmlns="http://www.w3.org/2000/svg"
 width="1920.000000pt" height="1358.000000pt" viewBox="0 0 1920.000000 1358.000000"
 preserveAspectRatio="xMidYMid meet">

<g transform="translate(0.000000,1358.000000) scale(0.100000,-0.100000)"
fill="#000000" stroke="none">
<path d="M0 6790 l0 -6790 9600 0 9600 0 0 6790 0 6790 -9600 0 -9600 0 0
-6790z m9484 5804 c19 -18 19 -20 6 -45 -18 -32 -80 -19 -80 17 0 17 28 44 45
44 7 0 21 -7 29 -16z m-149 -224 c17 -19 17 -21 0 -47 -18 -27 -18 -27 -28 -5
-5 12 -18 24 -28 27 -19 6 -25 26 -12 38 13 14 50 7 68 -13z m-47 -53 c2 -12
-1 -15 -12 -11 -19 7 -22 38 -3 32 6 -3 13 -12 15 -21z m-23 -12 c30 -30 30
-31 9 -39 -33 -13 -71 33 -47 57 9 10 9 10 38 -18z m1955 -92 c28 -10 65 -36
96 -69 42 -43 54 -64 69 -119 16 -56 17 -75 7 -127 -6 -34 -9 -65 -6 -69 6
-11 156 -89 169 -89 5 1 22 17 36 38 30 43 108 89 174 101 60 11 156 -10 210
-47 54 -37 101 -110 115 -180 7 -31 27 -84 45 -117 19 -33 40 -85 48 -116 11
-41 26 -68 57 -100 117 -120 178 -276 167 -425 -5 -72 -5 -72 30 -105 75 -71
154 -229 152 -303 0 -11 -9 11 -19 51 -10 39 -28 89 -39 110 -27 53 -109 153
-126 153 -17 0 -29 -120 -23 -233 7 -120 55 -199 151 -249 22 -10 36 -22 33
-25 -10 -10 -105 58 -137 98 -17 22 -37 60 -45 86 -15 49 -18 202 -5 291 l7
52 -45 29 c-50 32 -157 71 -194 71 -67 0 -74 -202 -9 -295 31 -45 76 -74 141
-91 25 -7 38 -13 27 -13 -70 -3 -172 68 -200 140 -26 64 -31 156 -12 209 9 25
16 48 16 53 0 9 -87 8 -175 -3 -329 -40 -401 -37 -516 21 l-58 29 -47 -30
c-167 -106 -370 -25 -428 170 -39 131 36 279 168 334 21 9 44 16 51 16 7 0 16
-32 24 -87 7 -49 15 -101 18 -118 l7 -30 7 40 c4 22 8 75 8 118 1 74 2 77 25
77 66 0 164 -60 207 -127 61 -98 61 -209 -1 -307 -17 -26 -30 -48 -30 -50 0
-2 28 -16 61 -31 107 -48 161 -52 381 -27 106 12 219 22 251 22 67 0 62 -7
104 150 19 67 26 120 26 178 0 80 -1 85 -29 107 -16 13 -48 34 -70 46 l-41 23
-32 -37 c-98 -111 -282 -122 -396 -23 l-30 26 75 70 c43 40 68 70 59 70 -9 0
-51 -16 -94 -36 -58 -27 -80 -33 -89 -24 -16 16 -21 172 -6 201 11 20 10 25
-11 42 -13 11 -54 34 -90 53 l-66 33 -29 -39 c-16 -21 -49 -52 -74 -69 -180
-121 -422 -5 -438 211 -6 81 3 118 45 182 l37 56 78 -77 c43 -43 78 -72 78
-66 0 6 -18 50 -40 99 -44 96 -44 99 20 110 19 3 40 7 45 8 18 6 79 -5 125
-21z m-1762 -5 c17 -17 15 -53 -3 -68 -20 -17 -62 -5 -70 20 -14 44 41 80 73
48z m-1730 -29 l30 -10 -45 -95 c-25 -52 -43 -97 -39 -101 3 -4 39 29 78 71
l72 78 27 -30 c43 -48 72 -137 66 -203 -15 -169 -169 -288 -337 -258 -67 13
-153 67 -182 115 -11 18 -22 34 -25 34 -3 0 -44 -21 -90 -46 -80 -43 -85 -48
-79 -73 16 -62 18 -123 6 -170 -7 -28 -14 -51 -17 -51 -2 0 -38 16 -80 35 -85
39 -97 43 -101 32 -2 -7 47 -54 112 -105 l29 -22 -23 -25 c-44 -47 -117 -75
-194 -75 -86 0 -143 24 -204 83 l-42 41 -46 -24 c-85 -46 -94 -59 -94 -142 0
-75 15 -154 51 -269 l21 -67 112 -5 c61 -3 178 -13 259 -22 119 -13 160 -14
205 -5 59 12 172 58 172 70 0 3 -14 32 -31 64 -40 73 -48 153 -25 224 32 95
144 192 223 192 l31 0 7 -105 c10 -149 26 -138 41 28 8 88 15 92 90 58 89 -41
153 -134 162 -237 11 -146 -86 -272 -235 -304 -63 -14 -144 5 -206 47 l-37 26
-70 -33 c-114 -52 -166 -56 -380 -31 -102 11 -211 21 -244 21 l-58 0 7 -27
c16 -67 17 -172 1 -220 -28 -86 -132 -165 -210 -162 -12 0 -1 6 24 13 95 27
156 79 179 155 16 55 14 154 -5 200 -15 37 -18 40 -47 34 -52 -10 -139 -44
-185 -72 l-43 -26 8 -70 c5 -38 8 -110 7 -160 -1 -132 -40 -210 -136 -271 -21
-13 -43 -24 -50 -24 -7 1 1 8 17 17 64 34 108 78 134 133 24 51 26 64 24 180
-1 69 -6 138 -10 153 l-8 28 -43 -41 c-48 -48 -105 -145 -120 -210 -6 -25 -14
-54 -16 -65 -3 -11 -3 3 -1 30 7 69 63 180 128 249 l54 58 -10 48 c-7 36 -5
68 7 130 27 130 77 227 163 315 27 28 45 58 57 100 10 33 32 87 50 120 18 33
36 78 40 99 28 149 174 261 315 241 73 -10 146 -50 183 -101 17 -24 35 -44 40
-44 8 0 132 66 165 88 8 5 8 19 -2 57 -56 218 158 409 373 334z m1513 -179
c27 -15 26 -66 -2 -80 -16 -9 -26 -8 -45 5 -29 19 -31 38 -4 65 23 23 25 23
51 10z m224 -216 c37 -15 38 -82 1 -106 -20 -14 -56 -8 -76 12 -49 49 7 120
75 94z m-113 -332 c-1 -8 2 -11 6 -8 5 3 17 -3 26 -12 13 -16 14 -21 2 -37
-17 -23 -46 -13 -46 16 0 14 -5 19 -15 15 -8 -3 -22 2 -30 11 -13 13 -14 18
-3 25 19 12 63 5 60 -10z m-66 -31 c26 -20 22 -31 -12 -31 -22 0 -39 24 -28
41 7 13 13 11 40 -10z m-36 -53 c0 -16 -30 -20 -45 -8 -14 11 -14 15 2 32 16
18 18 18 30 2 7 -10 13 -22 13 -26z m175 12 c11 -35 -17 -54 -43 -28 -9 9 -8
16 5 30 21 23 30 23 38 -2z m-64 -25 c35 -32 37 -35 20 -45 -22 -11 -45 8 -36
31 4 10 -4 14 -30 14 -19 0 -35 -3 -35 -7 0 -5 5 -8 10 -8 6 0 10 -7 10 -16 0
-10 -7 -14 -22 -12 -33 4 -29 35 7 57 17 11 32 20 34 20 2 1 21 -15 42 -34z
m-164 -6 c13 -13 6 -42 -8 -33 -5 3 -6 11 -2 17 4 7 0 6 -10 -2 -18 -14 -21
-12 -11 13 7 19 16 20 31 5z m253 -18 c0 -24 -12 -32 -30 -21 -11 7 -11 11 -1
24 18 22 31 20 31 -3z m-115 -22 c8 -25 -8 -39 -36 -32 -17 5 -17 6 -1 29 21
29 29 30 37 3z m4166 -78 c44 -55 31 -146 -29 -213 -28 -31 -32 -39 -17 -37
11 3 44 44 82 104 56 90 83 122 83 99 0 -12 -100 -176 -123 -201 -18 -20 -19
-23 -3 -23 9 0 19 -7 22 -15 9 -22 23 -9 17 15 -3 11 6 44 21 73 35 72 87 102
159 94 28 -4 55 -11 60 -16 5 -5 16 -7 23 -4 24 9 19 -121 -7 -174 -28 -58
-87 -93 -157 -93 -36 0 -52 -4 -52 -13 0 -10 21 -9 103 5 118 20 167 22 167 8
0 -15 -14 -18 -105 -29 -44 -4 -63 -9 -42 -10 76 -2 125 -45 155 -136 11 -33
20 -60 19 -61 -1 -1 -33 -18 -70 -38 -81 -43 -107 -44 -167 -10 -43 24 -42 23
23 -36 61 -56 79 -81 60 -80 -5 1 -50 41 -101 90 -58 55 -99 87 -108 83 -17
-6 -9 -23 12 -23 8 0 34 -18 58 -40 70 -65 72 -145 4 -232 -18 -24 -33 -44
-34 -46 -1 -1 -30 11 -66 26 -89 41 -118 77 -118 150 0 39 6 67 20 89 l20 33
-22 -4 c-27 -4 -32 -21 -48 -161 -7 -58 -17 -108 -21 -110 -17 -11 -19 19 -5
102 29 176 29 168 1 168 -28 0 -29 -3 -14 -42 16 -43 2 -109 -32 -148 -31 -35
-65 -50 -136 -58 -46 -5 -39 -14 -80 97 -22 60 -9 108 41 160 29 29 55 46 82
51 23 5 32 10 22 12 -17 4 -23 16 -18 38 1 6 -31 -22 -72 -62 -96 -94 -135
-125 -142 -115 -3 5 36 50 88 100 88 85 117 122 96 122 -5 0 -11 -9 -15 -19
-9 -30 -70 -79 -113 -90 -53 -15 -100 1 -146 48 l-39 40 23 53 c27 65 46 87
87 104 46 20 102 17 148 -6 29 -15 41 -17 46 -8 6 9 -28 26 -117 57 -68 25
-124 49 -124 53 0 14 24 9 88 -17 77 -31 86 -31 41 -1 -53 36 -71 82 -66 164
l5 67 75 9 c62 7 81 5 110 -9 41 -19 97 -96 97 -132 0 -13 5 -23 10 -23 14 0
15 -4 -29 114 -35 97 -39 116 -21 116 3 0 24 -55 45 -122 22 -68 40 -125 42
-127 1 -2 9 1 16 7 10 9 17 8 26 -1 10 -9 11 -8 5 6 -3 10 -15 22 -25 28 -10
5 -25 22 -33 37 -43 86 -20 171 60 221 l47 30 45 -32 c24 -18 53 -43 63 -56z
m-4317 47 c-4 -6 -17 -8 -31 -5 -23 4 -24 3 -9 -12 14 -13 20 -14 37 -2 30 18
48 -2 20 -21 -20 -14 -20 -16 -4 -29 9 -8 14 -9 10 -3 -12 21 19 37 45 23 23
-12 23 -12 4 10 -11 11 -17 21 -13 21 3 0 13 3 23 7 12 4 15 3 10 -5 -5 -8 -2
-10 8 -6 9 3 16 2 16 -4 0 -5 7 -12 14 -15 11 -4 13 -1 9 10 -5 12 -2 15 10
10 9 -3 17 -2 17 3 0 6 11 5 25 -2 22 -10 28 -8 54 22 27 31 29 32 39 14 11
-22 33 -126 62 -307 21 -133 28 -211 29 -336 1 -96 9 -88 15 14 3 44 5 82 5
85 1 2 20 -16 44 -42 47 -49 77 -129 77 -203 0 -22 10 -77 21 -123 18 -71 20
-86 8 -93 -23 -14 -26 -11 -53 44 -28 57 -35 57 -11 0 14 -33 14 -38 0 -52
-18 -19 -30 -8 -43 39 -9 32 -10 33 -11 8 -1 -15 -5 -29 -11 -33 -18 -11 -42
44 -49 112 l-7 68 -8 -57 c-4 -32 -12 -60 -17 -63 -5 -4 -9 -18 -9 -32 0 -45
-77 -308 -106 -366 -9 -18 -44 -68 -77 -112 -33 -44 -67 -95 -75 -113 -15 -30
-19 -33 -49 -27 -20 3 -33 2 -33 -4 0 -6 8 -8 18 -4 13 5 14 3 5 -7 -6 -7 -16
-9 -22 -6 -14 9 -14 53 -1 61 6 3 10 12 10 18 0 7 -4 6 -10 -3 -8 -12 -10 -10
-10 8 0 15 4 21 12 16 8 -5 9 -2 5 9 -3 9 -1 19 4 23 6 3 8 19 5 35 -3 15 -2
31 3 33 5 3 12 27 16 53 4 27 11 54 17 60 6 7 7 20 4 29 -4 10 1 25 11 36 14
15 15 23 5 38 -10 16 -8 20 8 25 11 4 20 12 20 20 0 7 9 15 20 18 11 3 24 16
29 29 5 12 21 36 35 51 21 22 22 27 8 23 -11 -4 -25 1 -35 12 -17 19 -47 84
-47 103 0 19 26 -8 40 -41 7 -16 25 -36 41 -44 16 -8 27 -11 24 -6 -3 5 -1 19
5 30 9 17 6 27 -22 62 -19 25 -26 39 -17 36 17 -7 33 16 42 57 3 18 -2 20 -44
20 -50 0 -65 7 -54 24 9 15 88 14 104 -1 11 -11 12 -10 6 1 -4 8 -9 26 -10 40
-4 56 -4 57 -14 42 -15 -23 -89 3 -101 35 -14 36 -12 39 10 19 11 -10 37 -21
58 -25 38 -7 39 -6 40 21 0 16 -3 31 -7 33 -4 3 -6 29 -4 60 1 30 -1 58 -6 60
-4 3 -6 -6 -3 -19 3 -19 0 -25 -12 -25 -11 0 -27 22 -47 65 -28 63 -39 135
-19 135 6 0 10 -11 10 -24 0 -42 35 -125 47 -112 2 2 -5 22 -16 45 -12 22 -22
63 -23 90 -3 64 -21 52 -44 -28 -14 -47 -15 -78 -8 -206 20 -330 11 -421 -62
-670 -32 -111 -43 -184 -45 -298 -2 -74 -6 -100 -16 -104 -23 -9 -36 12 -18
27 15 12 21 40 9 40 -4 0 -12 -7 -19 -17 -7 -9 -19 -14 -28 -10 -19 7 -30 48
-46 172 -7 49 -31 159 -54 245 -39 147 -41 162 -40 290 0 80 9 194 22 280 29
200 41 252 58 246 10 -4 11 -1 4 12 -17 33 60 285 107 347 14 18 21 21 39 12
12 -5 20 -14 17 -19z m232 20 c11 -18 -26 -40 -44 -26 -12 10 -11 14 4 25 22
16 31 16 40 1z m-4034 -20 c96 -72 115 -115 93 -201 -9 -36 -24 -61 -49 -84
-20 -18 -36 -34 -36 -36 0 -1 9 -3 20 -3 15 0 36 27 81 103 34 57 66 106 71
109 25 15 13 -11 -46 -109 -61 -99 -64 -108 -52 -131 16 -32 26 -23 26 23 0
56 37 112 92 140 44 21 52 22 97 11 27 -6 57 -13 67 -14 17 -3 18 -11 15 -76
-4 -91 -10 -108 -54 -147 -43 -38 -98 -57 -142 -50 -26 4 -33 2 -29 -8 4 -9
15 -12 32 -9 15 3 73 11 130 18 81 10 102 10 102 0 0 -8 -23 -15 -65 -19 l-64
-7 47 -24 c26 -13 54 -34 63 -47 22 -31 52 -128 42 -137 -4 -4 -35 -22 -68
-40 -48 -25 -68 -31 -102 -27 -48 5 -105 43 -133 89 -11 19 -19 24 -22 16 -3
-7 34 -48 88 -97 52 -46 94 -87 94 -92 0 -17 -16 -9 -51 27 -18 20 -43 40 -54
46 -19 10 -19 10 -4 -8 9 -11 17 -41 18 -73 2 -47 -2 -60 -35 -110 -21 -31
-39 -58 -41 -60 -5 -7 -119 44 -142 64 -52 44 -65 124 -31 190 11 21 18 41 15
43 -3 3 -5 1 -5 -5 0 -6 -8 -10 -17 -9 -15 1 -21 -18 -37 -131 -11 -73 -23
-133 -28 -133 -12 0 -9 44 11 160 10 58 17 108 15 111 -2 4 -15 4 -29 2 -21
-5 -23 -8 -14 -26 6 -11 9 -44 7 -74 -8 -90 -58 -136 -158 -146 l-55 -5 -22
58 c-28 70 -29 125 -4 166 22 36 77 80 105 85 24 5 25 20 2 34 -13 8 -32 -7
-104 -78 -77 -77 -114 -103 -111 -79 0 4 44 46 98 94 65 59 97 95 98 110 1 22
1 22 -10 3 -25 -42 -75 -84 -115 -96 -57 -17 -106 -1 -155 49 l-38 38 25 56
c30 68 72 105 130 113 48 8 107 -7 126 -31 17 -19 25 -18 27 4 1 14 -22 26
-113 57 -107 36 -133 49 -121 61 4 4 132 -41 215 -76 16 -7 21 -7 17 0 -3 5 1
10 9 10 8 0 17 4 20 9 4 5 -11 7 -32 4 -66 -9 -153 49 -171 113 -4 16 -6 57
-3 90 l4 61 74 7 c54 5 82 3 108 -8 39 -16 91 -82 101 -127 4 -16 11 -29 15
-29 7 0 -27 105 -65 203 -4 9 -3 17 3 17 9 0 72 -149 72 -171 0 -5 10 -19 21
-30 17 -17 19 -23 8 -30 -9 -6 -5 -7 14 -3 18 4 27 2 27 -7 0 -7 3 -9 7 -5 4
3 -10 23 -30 44 -85 88 -77 185 21 257 26 19 49 35 50 35 2 0 17 -10 34 -22z
m3878 11 c0 -5 -11 -9 -25 -9 -33 0 -33 15 0 16 14 1 25 -2 25 -7z m3948 -17
c3 -16 -2 -22 -17 -22 -24 0 -35 15 -27 36 9 23 40 13 44 -14z m-8042 -13 c8
-14 -21 -43 -35 -35 -19 12 -13 46 8 46 11 0 23 -5 27 -11z m8489 -34 c0 -30
-39 -27 -43 3 -3 20 0 23 20 20 15 -2 23 -10 23 -23z m-8047 -23 c3 -16 -2
-22 -17 -22 -24 0 -33 13 -25 35 9 23 38 14 42 -13z m7280 -236 c-2 -13 -10
-21 -23 -21 -23 0 -33 34 -14 45 20 13 40 -1 37 -24z m-8043 -21 c0 -13 -8
-21 -22 -23 -19 -3 -23 1 -23 23 0 22 4 26 23 23 14 -2 22 -10 22 -23z m9061
-110 c-3 -9 -14 -15 -23 -13 -22 4 -30 38 -11 49 18 11 43 -15 34 -36z m-8048
-13 c3 -16 -2 -22 -17 -22 -24 0 -33 13 -25 35 9 23 38 14 42 -13z m3488 -72
c17 0 29 -24 20 -39 -10 -16 -71 18 -90 50 -10 18 -14 38 -10 54 6 25 7 24 36
-20 16 -25 36 -45 44 -45z m-399 -76 c-12 -71 -22 -100 -49 -140 -20 -29 -43
-82 -53 -119 -18 -66 -36 -88 -56 -68 -9 9 24 124 55 196 5 10 4 17 -2 17 -10
0 -48 -97 -58 -151 -4 -19 -11 -42 -16 -51 -13 -25 -38 -22 -39 5 -1 15 -3 17
-6 5 -2 -9 -11 -19 -19 -22 -63 -24 -35 97 53 231 40 61 73 96 126 136 40 30
73 54 75 52 2 -1 -4 -43 -11 -91z m389 20 c39 -16 50 -32 35 -47 -8 -8 -20 -6
-44 8 -39 23 -56 44 -57 68 0 17 1 17 17 1 10 -9 32 -23 49 -30z m13 -114 c16
0 33 -5 37 -11 12 -20 -13 -31 -58 -24 -37 6 -44 10 -46 31 -2 21 1 23 17 14
11 -5 33 -10 50 -10z m3609 -112 c-3 -25 -17 -32 -37 -19 -19 12 -6 41 19 41
16 0 21 -5 18 -22z m-3589 -2 c8 -10 8 -16 -1 -24 -14 -11 -70 7 -82 27 -11
16 69 14 83 -3z m-4454 -21 c0 -13 -8 -21 -22 -23 -17 -3 -23 2 -23 16 0 10 3
22 7 26 13 13 38 1 38 -19z m8863 -18 c4 -20 -25 -34 -40 -19 -15 15 -1 44 19
40 10 -2 19 -11 21 -21z m-4464 -2 c30 -20 74 -86 69 -102 -9 -25 -31 -13 -46
25 -8 20 -24 46 -36 56 -36 33 -27 47 13 21z m-3587 -42 c-16 -16 -18 -16 -34
0 -17 17 -17 19 2 33 17 12 21 12 34 -1 14 -13 13 -17 -2 -32z m3602 -129 c15
-12 7 -34 -12 -34 -15 1 -47 64 -47 93 0 19 3 17 22 -13 13 -19 29 -40 37 -46z
m4004 12 c6 -15 -11 -36 -29 -36 -14 0 -27 28 -18 41 8 14 41 11 47 -5z
m-4035 -59 c15 -18 8 -37 -12 -37 -8 0 -16 16 -20 38 -9 54 -6 71 7 41 7 -14
18 -33 25 -42z m-4010 25 c3 -18 -1 -22 -22 -22 -19 0 -26 5 -26 18 0 39 43
43 48 4z m3963 -95 c-18 -18 -23 -1 -9 29 13 28 13 28 16 5 2 -13 -1 -28 -7
-34z m4552 -163 c30 -59 94 -102 196 -135 101 -32 191 -48 191 -33 0 21 -65
120 -105 160 -24 23 -69 57 -100 75 -31 17 -54 33 -52 35 2 3 26 -8 53 -23 67
-37 163 -137 198 -206 22 -44 34 -57 51 -57 32 0 127 -34 179 -65 90 -53 190
-159 233 -249 10 -21 37 -49 68 -70 29 -19 74 -57 101 -86 26 -28 71 -63 98
-78 62 -33 121 -109 137 -175 34 -141 -52 -299 -183 -339 -21 -6 -38 -16 -38
-21 0 -6 8 -50 17 -98 l16 -87 51 -7 c113 -15 213 -90 250 -187 32 -82 14
-202 -39 -272 -17 -23 -14 -25 -120 68 -30 27 -58 47 -61 44 -2 -3 19 -44 47
-92 37 -61 49 -90 41 -98 -11 -11 -114 -38 -149 -38 -41 0 -135 42 -176 79
-45 40 -83 114 -93 178 -18 123 78 271 198 303 44 12 44 13 22 126 l-16 81
-57 6 c-54 4 -124 31 -165 62 -18 14 -16 18 48 85 36 39 66 75 66 81 0 10 -90
-37 -142 -74 -14 -11 -31 -17 -36 -13 -6 3 -18 29 -27 58 -44 131 20 279 146
339 56 26 54 17 23 127 -13 48 -19 55 -59 72 -66 28 -146 40 -271 40 l-112 0
-6 -36 c-8 -38 -56 -157 -63 -151 -2 2 8 29 21 59 14 31 28 71 31 90 l7 35
-54 0 c-107 1 -214 62 -257 147 -22 45 -34 157 -17 173 3 3 6 -24 6 -61 0 -80
21 -129 79 -178 57 -49 130 -72 219 -69 l32 1 0 89 c0 49 -5 112 -12 140 -11
47 -14 51 -47 57 -69 11 -226 56 -261 74 -73 38 -141 133 -153 215 -5 35 -4
33 12 -15 10 -30 25 -69 34 -86z m-4571 94 c-6 -6 -14 -9 -17 -6 -3 3 -3 13 1
22 5 12 10 14 17 7 8 -8 8 -14 -1 -23z m-235 -82 c11 -36 12 -50 4 -55 -7 -4
-14 -25 -17 -47 -12 -91 -16 -104 -28 -104 -19 0 -26 23 -26 87 0 83 -12 57
-14 -29 -1 -75 -11 -90 -33 -47 -31 59 -13 124 66 243 21 32 27 36 29 20 2
-10 10 -41 19 -68z m219 19 c-8 -23 -25 -9 -19 16 4 13 9 17 16 10 5 -5 7 -17
3 -26z m-2672 -13 c37 -22 76 -96 76 -144 0 -86 -71 -206 -189 -323 l-71 -69
0 -146 c0 -146 31 -415 50 -434 6 -6 19 0 33 16 51 55 145 41 187 -27 47 -75
18 -188 -83 -320 -76 -101 -75 -101 -148 -74 -123 45 -232 132 -267 212 -50
115 54 212 173 163 40 -17 40 -17 26 60 -31 163 -45 514 -21 522 6 2 -21 22
-62 44 -133 72 -237 171 -280 265 -33 73 -35 115 -9 163 48 90 154 105 255 36
29 -20 55 -36 57 -36 3 0 29 23 59 50 30 28 68 55 85 60 38 11 91 4 129 -18z
m5514 -3 c9 -7 36 -31 60 -53 42 -41 43 -41 70 -24 108 69 173 82 230 48 96
-59 95 -189 -2 -311 -53 -67 -250 -209 -290 -209 -9 0 -16 -4 -16 -10 0 -5 7
-10 17 -10 15 0 15 -17 9 -187 -3 -104 -13 -228 -21 -278 -21 -132 -23 -125
28 -108 77 27 143 -3 168 -75 14 -41 -10 -115 -51 -159 -59 -63 -233 -163
-283 -163 -20 0 -132 144 -162 208 -49 103 -43 187 18 238 27 23 38 26 84 22
41 -4 60 -11 83 -33 l29 -28 5 24 c21 87 38 249 43 397 l6 173 -38 31 c-64 53
-165 179 -197 246 -37 79 -40 140 -9 200 24 46 55 71 104 81 37 8 90 -1 115
-20z m-2858 -29 c0 -11 -4 -20 -10 -20 -5 0 -10 9 -10 20 0 11 5 20 10 20 6 0
10 -9 10 -20z m250 -30 c17 -70 19 -222 2 -227 -6 -3 -16 6 -21 19 -10 23 -10
23 -10 -4 -1 -18 -6 -28 -16 -28 -8 0 -15 1 -16 3 0 1 -6 40 -13 87 -12 82
-12 85 11 119 13 19 26 45 29 58 10 36 21 27 34 -27z m-4141 16 c-2 -2 -31 -9
-63 -15 -32 -6 -84 -22 -115 -36 -59 -27 -161 -100 -161 -114 0 -15 120 -31
224 -31 137 0 207 34 266 128 16 26 30 42 30 36 0 -6 -13 -29 -29 -50 -71 -98
-137 -128 -271 -126 -52 0 -125 6 -163 12 -61 11 -70 10 -88 -6 -28 -25 -87
-151 -95 -199 l-6 -40 49 -18 c59 -21 145 -22 204 -2 71 25 113 69 141 147 15
41 18 45 13 18 -9 -55 -55 -121 -108 -154 -62 -38 -168 -47 -246 -21 -29 9
-55 14 -59 10 -4 -3 -5 -59 -2 -123 2 -64 5 -192 5 -283 l0 -166 -43 -87 c-40
-80 -42 -89 -28 -105 52 -57 66 -193 28 -271 -34 -70 -78 -116 -138 -146 -102
-50 -229 -32 -316 45 -40 35 -88 121 -88 157 0 24 16 28 150 38 25 2 51 4 58
5 24 2 12 17 -15 19 -16 1 -66 7 -112 13 l-83 11 5 34 c9 54 75 144 131 179
40 24 62 30 122 33 83 5 130 -8 193 -51 48 -33 45 -34 85 43 45 89 50 126 40
333 -4 106 -8 226 -7 267 2 49 -2 77 -10 82 -40 26 -240 81 -313 85 l-82 6
-46 -59 c-25 -33 -46 -66 -46 -75 0 -8 14 -28 31 -45 56 -53 74 -99 74 -194 0
-62 -5 -94 -18 -117 -21 -39 -76 -103 -87 -103 -5 0 -35 34 -67 75 -48 63 -73
87 -73 72 0 -2 18 -45 39 -96 40 -92 40 -92 18 -100 -63 -24 -140 -20 -217 12
-11 5 -29 -17 -67 -80 l-52 -86 44 -39 c127 -112 134 -297 16 -414 -57 -57
-103 -77 -188 -82 -60 -3 -80 0 -125 21 -29 13 -66 37 -82 52 l-30 27 45 37
c76 62 114 99 109 105 -3 3 -45 -10 -93 -29 -48 -19 -91 -35 -96 -35 -5 0 -15
25 -21 55 -27 132 53 276 177 321 51 18 146 17 190 -1 20 -9 40 -12 45 -7 12
12 98 153 98 161 0 4 -16 23 -36 42 -103 98 -122 260 -43 369 52 72 120 110
219 124 19 3 61 18 92 35 32 16 84 35 115 42 42 9 73 25 112 56 139 113 301
165 442 142 l60 -10 51 45 c58 50 141 94 213 112 50 12 102 18 94 10z m3710
-113 c1 -24 -3 -43 -8 -43 -15 0 -19 23 -13 80 4 44 7 50 13 30 4 -14 7 -44 8
-67z m171 73 c0 -8 -4 -18 -10 -21 -5 -3 -10 3 -10 14 0 12 5 21 10 21 6 0 10
-6 10 -14z m-10 -66 c0 -11 -4 -20 -10 -20 -5 0 -10 9 -10 20 0 11 5 20 10 20
6 0 10 -9 10 -20z m-1095 -12 c118 -21 291 -136 272 -181 -3 -6 -74 -91 -157
-187 -83 -96 -154 -182 -157 -190 -3 -8 -18 -28 -32 -45 -31 -35 -14 -23 75
51 105 88 338 234 373 234 27 0 84 -56 116 -115 32 -56 35 -69 35 -143 0 -248
-118 -497 -296 -622 -67 -47 -227 -110 -334 -131 -112 -21 -287 -25 -372 -8
-65 13 -228 67 -246 81 -42 35 1 -66 80 -187 21 -33 27 -46 13 -30 -36 43
-112 175 -121 210 -4 17 -16 42 -26 58 -76 108 -127 343 -113 522 19 256 127
444 335 581 49 33 217 93 305 110 72 13 144 11 250 -8z m1289 -122 c6 -29 4
-37 -6 -34 -19 7 -40 88 -32 128 10 58 19 58 25 0 3 -30 9 -72 13 -94z m1141
104 c275 -88 455 -277 510 -539 35 -168 28 -326 -22 -485 -26 -83 -81 -196
-96 -196 -4 0 -6 -4 -2 -9 7 -13 -52 -123 -132 -246 -155 -236 -522 -538
-1148 -943 -43 -28 -81 -50 -83 -48 -1 2 3 21 9 42 9 29 21 43 48 56 82 39
419 262 580 382 349 261 470 386 610 631 28 49 51 93 51 97 0 4 -21 -2 -47
-13 -75 -32 -199 -58 -308 -65 -180 -11 -400 50 -554 155 -123 84 -202 195
-259 366 -78 235 -64 360 54 476 l44 43 47 -23 c85 -40 197 -109 278 -170 45
-34 84 -56 89 -51 5 5 -30 53 -80 111 -181 208 -224 261 -224 274 0 19 103
110 152 134 87 41 145 51 283 47 99 -3 147 -9 200 -26z m-1416 -188 c-20 -8
-39 8 -39 33 l0 26 24 -28 c14 -15 20 -30 15 -31z m82 5 c-5 -5 -17 -7 -26 -3
-13 5 -14 8 -3 20 9 10 17 11 26 3 8 -6 9 -14 3 -20z m-41 -32 c0 -17 -23 -25
-41 -14 -11 7 -10 11 6 23 22 16 35 12 35 -9z m-70 1 c0 -8 9 -21 20 -29 19
-13 19 -15 4 -21 -23 -9 -44 11 -42 40 2 26 18 34 18 10z m114 -23 c-9 -38
-13 -43 -30 -43 -23 0 -27 27 -7 48 27 30 45 28 37 -5z m-50 -64 c-7 -12 -41
-12 -49 0 -9 15 28 31 42 19 7 -6 10 -14 7 -19z m-60 -4 c19 -29 14 -45 -14
-45 -24 0 -29 9 -23 43 7 34 16 34 37 2z m106 -2 c0 -33 -16 -46 -46 -39 -22
6 -26 5 -17 -5 6 -6 9 -18 6 -25 -6 -17 -35 -18 -51 -2 -8 8 2 20 41 49 60 43
67 45 67 22z m4924 -346 c-61 -140 -79 -220 -69 -313 9 -84 12 -86 65 -68 90
32 215 -2 287 -78 49 -51 73 -112 73 -190 0 -80 5 -78 -119 -48 -46 11 -86 18
-89 15 -8 -7 -6 -8 91 -53 48 -22 87 -45 87 -49 0 -14 -44 -71 -73 -93 -100
-79 -254 -80 -352 -3 -141 112 -146 321 -10 441 l46 40 -10 44 c-15 61 -13
135 3 198 15 57 116 294 122 287 2 -2 -21 -61 -52 -130z m-5111 -663 c18 -9
53 -34 78 -55 42 -35 48 -37 60 -23 33 39 101 76 152 80 67 7 114 -17 144 -71
53 -94 12 -206 -127 -342 -68 -67 -173 -138 -189 -129 -5 4 -11 0 -13 -6 -6
-17 -97 53 -188 143 -79 79 -140 188 -140 251 0 42 26 103 57 130 43 39 114
48 166 22z m4177 -54 c21 -11 41 -24 45 -30 3 -5 25 -18 48 -28 65 -30 81 -53
85 -131 5 -86 -23 -156 -81 -206 -47 -41 -92 -55 -162 -54 -73 1 -89 9 -129
62 -48 64 -58 90 -58 162 0 99 49 182 135 224 52 26 68 26 117 1z m-7577 -1
c12 -7 41 -27 64 -46 35 -28 46 -46 63 -100 32 -103 24 -163 -29 -233 -29 -38
-52 -77 -28 -48 13 16 17 11 47 -55 71 -156 232 -418 334 -542 74 -90 252
-263 330 -322 131 -97 328 -196 463 -231 61 -16 76 -26 51 -35 -7 -2 1 -2 17
1 26 4 53 4 123 -1 21 -1 13 -27 -10 -36 -13 -5 -44 -7 -70 -6 -26 2 -46 0
-44 -4 3 -4 -21 -13 -52 -20 -142 -33 -278 -94 -426 -192 -281 -186 -504 -452
-731 -873 -47 -87 -48 -90 -32 -115 60 -94 71 -167 41 -258 -18 -55 -41 -83
-101 -124 -60 -42 -118 -43 -169 -4 -21 16 -56 38 -78 50 -64 32 -81 64 -79
146 5 161 91 252 238 253 39 0 82 -3 98 -7 18 -5 27 -4 27 4 0 18 106 233 157
317 88 147 208 307 308 411 165 171 298 271 469 351 91 43 127 56 246 88 l35
10 -31 1 c-49 2 -180 48 -274 98 -136 71 -266 169 -395 298 -131 131 -180 190
-278 335 -72 106 -227 388 -230 417 -1 17 -6 18 -64 9 -152 -23 -271 68 -287
219 -4 37 -2 74 5 95 13 39 46 80 65 80 6 0 34 15 60 33 27 19 56 36 64 40 26
10 80 8 103 -4z m892 -48 c12 -83 45 -194 86 -281 40 -85 137 -240 151 -240 4
0 14 13 22 29 17 33 65 56 99 47 107 -26 120 -152 35 -344 l-19 -43 -57 6
c-128 15 -225 60 -263 122 -19 30 -20 39 -10 73 14 47 45 68 105 72 l46 3 -43
58 c-97 129 -191 357 -204 491 l-6 64 26 -5 c22 -4 27 -12 32 -52z m5525 29
c0 -79 -62 -278 -120 -385 -38 -70 -98 -163 -111 -171 -21 -13 -8 -34 22 -34
89 0 135 -81 90 -157 -27 -43 -126 -90 -224 -105 -92 -14 -92 -14 -131 85 -49
124 -45 220 10 268 48 41 122 24 150 -35 l17 -34 55 81 c30 45 72 118 93 162
40 84 89 239 89 284 0 30 9 46 30 54 26 9 30 8 30 -13z m-4295 -310 c10 -11
16 -20 13 -20 -3 0 -13 9 -23 20 -10 11 -16 20 -13 20 3 0 13 -9 23 -20z m56
-47 c13 -16 12 -17 -3 -4 -10 7 -18 15 -18 17 0 8 8 3 21 -13z m5169 -211
c-138 -273 -251 -432 -450 -632 -176 -177 -370 -304 -560 -365 -30 -10 -59
-21 -63 -25 -8 -7 -117 6 -126 15 -2 3 2 6 10 9 309 90 490 198 724 431 166
166 307 369 440 635 l57 114 19 -23 c19 -23 18 -23 -51 -159z m-5085 138 c10
-11 16 -20 13 -20 -3 0 -13 9 -23 20 -10 11 -16 20 -13 20 3 0 13 -9 23 -20z
m66 -57 c13 -16 12 -17 -3 -4 -10 7 -18 15 -18 17 0 8 8 3 21 -13z m284 -200
c11 -7 16 -13 12 -13 -10 0 -87 51 -87 57 0 5 27 -11 75 -44z m-44 -20 c13
-17 13 -17 -6 -3 -11 8 -22 16 -24 17 -2 2 0 3 6 3 6 0 17 -8 24 -17z m630
-45 c58 -40 113 -90 136 -125 14 -21 45 -123 38 -123 -2 0 -13 21 -25 48 -14
33 -52 78 -128 151 -111 107 -113 111 -21 49z m-515 11 c3 -6 -5 -3 -20 6 -14
10 -26 19 -26 22 0 7 39 -17 46 -28z m434 -112 c6 -102 13 -145 29 -182 12
-26 20 -50 18 -52 -2 -1 -17 13 -33 33 -16 20 -38 45 -49 56 -13 12 -15 17 -5
13 13 -5 15 6 12 70 -4 78 6 211 15 201 3 -3 9 -65 13 -139z m-380 77 c0 -2
-9 0 -20 6 -11 6 -20 13 -20 16 0 2 9 0 20 -6 11 -6 20 -13 20 -16z m513 -74
c32 -30 70 -77 84 -105 25 -49 25 -50 10 -100 -9 -27 -18 -57 -20 -65 -6 -22
-42 91 -39 121 6 52 -67 78 -83 28 -8 -25 3 -59 20 -59 12 0 36 -53 60 -130 8
-25 7 -25 -23 5 -16 17 -43 42 -58 56 -16 14 -37 48 -47 75 -19 51 -35 229
-23 260 7 19 11 17 119 -86z m687 85 c0 -3 -42 -36 -92 -73 -102 -75 -147
-121 -167 -170 -15 -36 -36 -44 -25 -9 26 84 73 134 193 206 86 52 91 55 91
46z m20 -217 c-12 -69 -55 -149 -90 -168 -30 -16 -30 0 1 43 36 50 56 117 69
229 6 47 13 95 18 105 12 31 14 -137 2 -209z m-1279 195 c13 -16 12 -17 -3 -4
-10 7 -18 15 -18 17 0 8 8 3 21 -13z m1245 -92 c-12 -151 -65 -262 -143 -300
l-45 -22 22 38 c13 21 38 52 56 70 38 35 42 54 18 77 -32 33 -74 13 -74 -35 0
-16 -17 -56 -37 -91 l-38 -63 -7 80 c-7 73 -6 82 16 120 14 22 42 57 63 77 44
43 154 126 167 127 5 1 6 -33 2 -78z m-2509 -117 c32 -33 85 -78 118 -101 64
-43 158 -93 175 -93 5 0 16 15 24 34 36 87 137 64 165 -39 12 -43 15 -153 5
-179 -8 -22 -71 -37 -154 -38 -54 0 -76 4 -104 21 -62 38 -55 117 12 142 25
10 24 12 -57 55 -138 73 -255 178 -319 285 -20 33 -20 37 -5 52 15 15 19 13
49 -32 18 -26 59 -75 91 -107z m4568 126 c5 -15 -6 -39 -39 -84 -70 -98 -199
-204 -313 -257 -57 -26 -63 -34 -33 -44 33 -10 50 -34 50 -69 0 -78 -116 -114
-257 -79 -13 3 -20 9 -17 14 3 5 0 8 -7 7 -29 -7 -30 165 -1 219 42 77 139 72
160 -9 l7 -29 90 45 c113 56 204 131 279 229 32 42 62 77 67 77 4 0 11 -9 14
-20z m-2995 -66 c0 -2 -9 0 -20 6 -11 6 -20 13 -20 16 0 2 9 0 20 -6 11 -6 20
-13 20 -16z m608 -63 c94 -65 96 -217 5 -309 -24 -23 -43 -44 -43 -45 0 -1 11
-3 23 -3 20 -1 36 18 103 132 43 73 85 134 92 134 16 0 11 -9 -89 -167 -43
-68 -74 -123 -69 -123 5 0 16 14 25 30 22 43 29 37 21 -21 -4 -30 -3 -48 2
-45 5 3 12 31 14 61 5 60 39 121 90 158 35 26 116 32 192 15 l59 -14 -2 -90
c-2 -109 -23 -158 -84 -201 -57 -41 -109 -56 -163 -48 -37 5 -43 4 -38 -9 8
-20 -1 -20 178 4 83 11 152 17 155 14 9 -9 -23 -24 -53 -24 -61 0 -279 -34
-261 -40 19 -7 19 -7 0 -18 -34 -19 -6 -13 35 8 22 11 59 20 82 20 110 0 169
-46 209 -164 l26 -76 -77 -45 c-81 -48 -136 -57 -197 -34 -43 16 -109 75 -123
109 -11 27 -15 29 -23 15 -7 -14 4 -29 59 -78 127 -113 179 -166 172 -173 -4
-4 -61 43 -127 105 -109 102 -144 130 -125 99 5 -8 2 -9 -9 -5 -10 3 -17 4
-17 2 0 -3 18 -12 39 -21 22 -8 57 -34 78 -57 21 -23 64 -64 96 -92 31 -27 57
-57 57 -67 0 -9 9 -22 20 -28 51 -27 95 36 50 72 -12 10 -26 15 -31 12 -9 -5
-90 60 -98 79 -2 5 9 7 25 5 26 -3 69 -34 122 -88 28 -28 102 -175 102 -201 0
-9 7 -22 15 -29 28 -23 9 -21 -81 11 -104 36 -158 65 -198 108 l-29 30 -48
-67 c-27 -36 -50 -71 -52 -76 -2 -6 -23 -1 -48 11 -24 11 -55 24 -69 28 -105
32 -152 168 -96 278 13 26 20 47 16 47 -4 0 -15 -16 -24 -35 -20 -41 -30 -46
-24 -10 3 14 2 25 -2 25 -4 0 -16 -68 -26 -150 -10 -83 -21 -156 -26 -162 -18
-30 -16 10 6 158 13 87 20 165 16 172 -4 8 -7 -2 -8 -23 -2 -48 -49 -188 -74
-220 -26 -34 -62 -51 -123 -59 -27 -4 -62 -9 -77 -12 -21 -4 -28 -2 -28 10 0
9 -3 16 -8 16 -4 0 -18 34 -31 75 l-23 75 -45 -39 c-24 -22 -66 -47 -92 -56
-47 -15 -220 -39 -228 -31 -2 2 31 11 74 21 43 9 101 23 129 30 59 17 164 83
164 103 0 9 -14 1 -37 -18 -52 -46 -124 -77 -218 -93 -44 -8 -88 -18 -98 -22
-25 -10 75 153 125 206 49 51 104 78 145 72 18 -3 46 0 63 5 16 6 30 9 30 7 0
-10 -124 -120 -138 -124 -40 -8 -57 -52 -30 -79 28 -28 78 -7 78 33 0 19 43
68 94 106 18 13 19 12 13 -6 -5 -12 2 -8 18 12 36 45 78 73 133 89 45 13 46
14 7 8 -21 -3 -53 -13 -70 -21 l-30 -15 34 36 c19 19 32 38 30 41 -3 2 -54
-45 -114 -105 -97 -97 -137 -128 -134 -102 0 4 54 56 119 116 66 60 117 113
114 118 -3 5 0 15 6 23 8 10 9 15 2 15 -6 0 -20 -17 -32 -37 -41 -73 -139
-120 -213 -104 -42 10 -54 18 -113 74 l-42 39 36 80 c31 69 42 83 82 106 37
22 57 27 116 27 62 0 75 -3 107 -27 43 -33 57 -36 31 -7 -19 21 -19 22 4 15
12 -4 22 -5 22 -3 0 2 -70 31 -155 63 -88 33 -155 64 -155 71 0 9 15 7 53 -8
134 -54 249 -99 255 -99 3 0 -3 7 -14 15 -18 14 -18 14 8 15 15 0 29 4 32 8 3
5 -17 7 -43 4 -70 -6 -150 31 -188 89 -26 39 -28 50 -28 139 l0 97 90 13 c80
11 96 10 130 -4 22 -10 50 -27 63 -39 39 -36 74 -104 75 -145 0 -20 2 -28 5
-18 3 15 6 16 13 5 20 -33 7 18 -36 132 -45 120 -52 149 -37 149 4 0 31 -69
60 -152 28 -84 57 -155 63 -157 8 -2 8 2 0 17 -17 33 -13 50 7 27 20 -23 52
-50 52 -43 0 3 -20 25 -44 49 -102 104 -86 233 39 324 l60 43 30 -27 c17 -15
45 -38 63 -50z m-319 15 c5 -27 -26 -48 -50 -35 -19 10 -25 39 -12 53 14 14
58 1 62 -18z m-269 -22 c0 -2 -9 0 -20 6 -11 6 -20 13 -20 16 0 2 9 0 20 -6
11 -6 20 -13 20 -16z m821 -20 c17 -21 0 -49 -32 -49 -27 0 -37 28 -19 50 16
19 34 19 51 -1z m-5126 -44 c0 -8 -18 -25 -40 -38 -25 -14 -31 -20 -15 -16 14
4 34 8 45 8 25 1 33 -32 8 -40 -10 -3 -27 -10 -38 -15 -18 -8 -18 -9 5 -6 16
1 26 -4 28 -15 5 -24 -60 -43 -148 -41 l-75 1 85 -19 c47 -10 98 -21 113 -23
39 -7 165 -41 267 -73 85 -26 112 -42 266 -151 106 -74 120 -89 107 -111 -14
-22 -50 -26 -69 -7 -18 19 -40 21 -50 5 -4 -8 -9 -7 -14 2 -7 11 -44 18 -105
19 -10 1 -26 6 -35 13 -13 11 -13 10 -1 -6 17 -22 8 -32 -16 -18 -10 6 -14 11
-9 11 5 0 3 7 -4 15 -15 18 -60 20 -61 3 0 -7 -5 -2 -10 11 -7 18 -15 22 -35
18 -27 -5 -65 22 -77 56 -3 9 -13 17 -21 17 -8 0 -32 16 -53 35 -21 19 -44 33
-51 30 -7 -3 -21 -1 -31 5 -13 7 -27 3 -54 -15 -45 -31 -56 -32 -31 -3 13 16
14 19 2 10 -11 -9 -18 -10 -23 -2 -3 5 -15 10 -26 10 -10 0 -28 5 -38 12 -10
6 -26 8 -37 3 -11 -4 -45 -9 -76 -11 -31 -1 -65 -7 -75 -11 -10 -5 -40 -8 -66
-7 -39 2 -59 -5 -104 -32 -54 -32 -78 -39 -130 -34 -41 3 -24 -17 28 -33 55
-18 171 -21 379 -9 137 8 280 -1 344 -23 26 -9 60 -18 77 -20 16 -2 45 -9 65
-15 27 -9 38 -9 49 0 9 7 22 9 32 5 16 -7 15 -9 -7 -14 -44 -12 98 -41 235
-48 124 -6 152 -16 121 -43 -10 -8 -15 -7 -20 5 -3 8 -16 15 -28 15 -20 -1
-21 -2 -5 -11 20 -12 23 -44 5 -56 -7 -4 -67 -15 -133 -25 -138 -20 -226 -40
-340 -75 -66 -21 -101 -25 -200 -26 -160 -1 -520 47 -548 72 -4 4 1 16 11 27
15 16 16 22 6 32 -19 17 -22 15 -17 -11 7 -38 -14 -46 -82 -32 -72 16 -225 70
-251 90 -18 14 -18 15 6 37 14 13 20 19 13 15 -8 -6 -14 -1 -19 18 -8 33 3 46
21 22 15 -21 42 -13 50 14 5 14 -3 31 -25 55 -23 27 -28 39 -20 49 8 9 6 17
-6 29 -9 9 -14 25 -11 35 3 12 -5 24 -24 35 -41 24 -39 49 5 44 24 -3 32 0 29
9 -3 7 -1 13 3 13 5 0 61 9 124 20 195 35 277 48 291 47 8 0 75 1 149 3 l135
3 -103 10 -102 9 27 33 c42 50 99 74 202 86 49 5 109 16 133 24 53 17 93 15
93 -5z m10088 -10 c85 -32 181 -99 241 -169 31 -36 56 -69 56 -74 0 -5 -12 -6
-27 -3 -16 3 -55 8 -88 12 -33 3 -67 12 -75 18 -36 27 -84 48 -152 65 -61 16
-74 22 -76 41 -3 21 -1 22 35 15 21 -3 63 -15 93 -26 30 -11 64 -22 75 -25 19
-5 19 -5 2 9 -18 15 -159 57 -190 57 -23 0 -33 26 -18 44 8 9 8 16 2 20 -6 4
-8 13 -4 21 8 21 62 19 126 -5z m-5894 -176 c23 -9 40 -18 38 -20 -2 -2 -30 2
-63 8 -52 9 -75 8 -167 -11 -145 -29 -182 -27 -87 5 144 48 197 51 279 18z
m29 -40 c17 -7 32 -18 32 -25 0 -7 11 -27 26 -46 14 -18 21 -33 15 -33 -20 0
-107 42 -128 62 -19 18 -27 20 -48 10 -37 -17 -33 -70 6 -84 9 -4 22 -3 29 2
11 7 149 -37 190 -60 34 -20 -157 -16 -226 5 -40 12 -207 116 -220 136 -8 13
33 28 121 43 86 14 151 11 203 -10z m5383 -20 c51 -25 88 -49 83 -53 -15 -13
-212 -61 -250 -61 -8 0 -14 7 -14 15 0 12 15 15 68 16 l67 1 -73 13 c-41 7
-75 15 -77 17 -13 13 21 32 71 38 l59 9 -74 -2 c-84 -2 -104 13 -49 37 56 25
92 19 189 -30z m-10995 -13 c15 -30 7 -59 -23 -78 -30 -20 -68 -6 -85 33 -30
65 75 109 108 45z m-856 14 c31 -38 -27 -83 -62 -47 -16 16 -18 23 -9 41 13
24 53 28 71 6z m2828 -17 c4 -20 -16 -27 -106 -38 l-67 -9 70 4 c39 2 79 5 89
7 30 5 31 -21 1 -32 -14 -5 -51 -10 -81 -10 -34 0 -54 -4 -54 -11 0 -12 20
-10 138 7 53 8 57 -11 5 -25 -68 -19 -116 -14 -160 18 -22 16 -58 38 -79 49
l-39 20 45 13 c44 12 175 28 215 25 11 0 21 -8 23 -18z m-2430 -24 c4 -38 -18
-59 -52 -50 -30 7 -41 37 -26 66 9 16 19 20 43 18 28 -3 32 -7 35 -34z m12134
21 c162 -17 268 -34 268 -44 0 -4 -7 -16 -15 -28 -14 -20 -14 -23 4 -35 17
-12 18 -16 4 -33 -14 -20 -14 -20 -29 -1 -8 11 -14 16 -14 10 0 -5 16 -24 34
-42 24 -23 36 -29 42 -21 4 7 3 9 -4 5 -14 -9 -27 33 -13 47 7 7 16 5 31 -8
11 -10 20 -13 20 -7 0 7 -4 12 -9 12 -19 0 -21 34 -4 54 l18 20 -29 -18 c-34
-22 -54 -9 -37 23 14 25 21 25 105 6 60 -14 236 -72 245 -81 3 -2 -6 -16 -20
-32 -13 -15 -20 -24 -15 -20 12 10 35 -22 29 -40 -4 -10 -10 -9 -25 4 -18 17
-20 17 -41 -4 -12 -12 -16 -22 -10 -22 6 0 14 7 17 16 5 13 9 14 21 4 11 -9
12 -17 4 -32 -8 -15 -8 -27 0 -44 6 -13 7 -32 4 -41 -6 -15 -4 -16 9 -5 13 10
17 10 21 -1 8 -20 -4 -67 -17 -67 -6 0 5 -8 24 -18 19 -9 35 -24 35 -32 0 -20
-41 -25 -63 -8 -15 12 -16 11 -3 -5 8 -9 12 -19 10 -21 -2 -2 -96 -21 -209
-44 -151 -30 -209 -38 -223 -30 -13 7 -17 7 -13 0 4 -6 -25 -12 -76 -16 -158
-12 -162 -13 -63 -14 l99 -2 -39 -41 c-55 -56 -98 -76 -194 -89 -46 -6 -112
-20 -147 -31 -35 -11 -69 -17 -74 -14 -19 12 -10 33 23 55 17 12 23 19 12 15
-39 -13 -55 -9 -55 14 0 14 10 22 33 27 30 7 31 8 8 13 -76 19 1 60 116 62 43
1 65 4 48 6 -92 11 -443 94 -516 122 -31 12 -82 42 -115 67 -32 25 -77 55 -99
66 -54 28 -75 47 -75 72 0 17 -2 18 -10 6 -6 -9 -10 -10 -10 -3 0 6 10 19 22
27 16 11 18 16 8 17 -8 1 -22 2 -30 3 -8 0 -16 11 -18 24 -4 26 5 28 30 5 20
-18 39 -10 20 9 -14 14 -15 28 -4 46 5 7 51 19 103 27 120 19 197 38 334 80
61 19 121 36 135 38 58 10 255 6 382 -8z m-6310 -64 c100 -68 154 -91 211 -91
15 0 27 -5 27 -11 0 -20 -112 -4 -166 24 -42 22 -120 81 -174 133 -31 30 4 11
102 -55z m198 29 c0 -25 -30 -41 -53 -29 -39 22 -4 79 35 58 10 -5 18 -18 18
-29z m730 36 c0 -3 -4 -8 -10 -11 -5 -3 -10 -1 -10 4 0 6 5 11 10 11 6 0 10
-2 10 -4z m-5924 -17 c3 -6 0 -15 -7 -20 -13 -7 -28 5 -29 24 0 11 28 8 36 -4z
m-41 -19 c7 -12 -3 -50 -13 -50 -4 0 -13 10 -21 21 -11 18 -11 23 1 30 17 11
26 11 33 -1z m83 -26 c2 -12 -4 -24 -12 -27 -10 -4 -16 -1 -16 8 0 7 -4 16 -9
19 -5 3 -8 -6 -8 -20 0 -32 -7 -37 -34 -29 -21 7 -21 9 -6 20 9 7 17 16 17 20
0 13 34 35 50 32 8 -1 16 -12 18 -23z m4233 -5 c48 -34 209 -104 294 -128 113
-32 115 -33 75 -42 -41 -9 -187 36 -320 99 -114 54 -117 57 -101 76 17 20 17
20 52 -5z m2272 -19 c61 -32 177 -110 163 -110 -3 0 -60 27 -125 60 -96 47
-132 61 -186 66 -86 9 -66 27 23 21 46 -4 81 -14 125 -37z m1116 17 c12 -15 4
-21 -90 -67 -145 -69 -281 -112 -325 -104 -44 8 -41 11 31 29 88 23 253 91
315 129 30 19 55 34 55 33 0 -1 7 -10 14 -20z m-7745 -10 c16 -25 -8 -46 -34
-29 -22 13 -27 3 -9 -15 14 -14 4 -43 -15 -43 -19 0 -30 48 -14 68 32 44 53
49 72 19z m894 -11 c4 -34 -5 -76 -17 -76 -10 0 -23 88 -15 102 11 17 29 2 32
-26z m-100 -2 c5 -32 -16 -74 -40 -83 -31 -12 -32 -8 -9 30 11 18 18 36 15 41
-9 14 5 40 19 36 6 -3 13 -14 15 -24z m50 -3 c6 -40 -7 -71 -29 -71 -16 0 -19
4 -14 18 4 9 9 32 12 50 6 36 26 38 31 3z m232 3 c0 -8 -6 -14 -13 -14 -7 0
-32 -14 -55 -31 -48 -35 -64 -33 -36 4 40 52 104 78 104 41z m-330 -2 c0 -32
-49 -92 -76 -92 -10 0 10 50 40 98 11 18 36 15 36 -6z m206 -10 c1 -23 -21
-62 -37 -62 -13 0 -11 64 3 78 17 17 33 9 34 -16z m172 6 c4 -21 -71 -70 -100
-66 -20 3 -17 7 25 32 26 15 47 35 47 43 0 19 24 11 28 -9z m5432 0 c39 -11
196 -94 204 -107 3 -4 -42 -23 -100 -41 -93 -29 -114 -32 -182 -27 -42 3 -93
12 -112 20 l-35 15 45 7 c62 8 101 9 127 0 15 -5 27 -1 43 15 19 19 20 24 7
43 -18 27 -53 33 -75 13 -10 -8 -42 -17 -72 -21 -30 -3 -66 -8 -78 -11 -19 -4
-12 7 32 50 31 30 62 56 69 59 17 6 85 -2 127 -15z m-5930 -3 c0 -9 -26 -28
-64 -45 -66 -31 -110 -38 -121 -20 -4 6 5 10 20 10 35 0 86 23 109 49 22 24
56 28 56 6z m60 4 c0 -20 -33 -67 -55 -79 -12 -6 -34 -10 -49 -8 -28 3 -27 3
18 35 25 18 46 39 46 48 0 8 9 15 20 15 11 0 20 -5 20 -11z m4215 -29 c22 -11
57 -40 78 -64 36 -44 37 -47 24 -78 -17 -40 -87 -105 -122 -114 -38 -9 -74 4
-87 31 -10 21 -7 30 15 62 26 36 26 38 8 58 -40 44 -37 86 7 110 34 18 29 18
77 -5z m-5821 -5 c3 -8 -3 -19 -14 -25 -10 -5 -22 -20 -25 -31 l-7 -21 -21 20
c-18 18 -19 25 -9 47 9 18 19 25 41 25 16 0 31 -6 35 -15z m960 -2 c11 -26
-11 -40 -32 -20 -15 16 -15 19 -2 27 21 14 27 12 34 -7z m72 2 c4 -8 4 -22 0
-30 -5 -13 -10 -12 -31 7 -19 16 -22 24 -13 30 20 12 38 9 44 -7z m1054 -5 c0
-15 -70 -52 -87 -46 -12 5 -5 13 28 35 41 28 59 31 59 11z m6068 4 c28 -19 29
-63 2 -92 -11 -12 -20 -24 -20 -28 0 -3 9 -17 20 -31 57 -73 -22 -134 -106
-82 -45 27 -103 101 -85 107 11 4 11 6 0 13 -10 6 -7 16 17 46 61 76 124 101
172 67z m3016 7 c17 -7 16 -8 -7 -24 -36 -23 -47 -21 -47 8 0 26 16 31 54 16z
m59 -37 c-30 -30 -33 -30 -33 0 0 26 14 36 41 29 14 -4 13 -8 -8 -29z m75 2
c-13 -12 -26 -17 -30 -12 -11 16 3 34 28 34 l24 0 -22 -22z m-9191 -23 c-24
-14 -67 -17 -67 -5 0 14 74 39 82 28 4 -6 -3 -16 -15 -23z m8999 20 c14 -20 2
-43 -22 -43 -14 0 -20 41 -7 53 10 10 15 9 29 -10z m-10189 -9 c9 -23 -25 -48
-44 -32 -11 9 -11 14 3 29 21 23 33 24 41 3z m75 4 c7 -19 -2 -38 -17 -38 -21
0 -28 19 -15 35 15 18 26 19 32 3z m74 -23 c-5 -14 -9 -15 -21 -5 -12 10 -13
16 -4 27 15 18 34 1 25 -22z m6393 11 c5 -27 -26 -48 -50 -35 -19 10 -25 39
-12 53 14 14 58 1 62 -18z m5495 3 c-3 -5 -10 -7 -15 -4 -5 3 -6 -2 -2 -12 5
-14 3 -16 -7 -6 -17 15 -5 44 15 37 8 -3 12 -10 9 -15z m-12954 2 c0 -13 -26
-32 -33 -24 -8 7 11 33 24 33 5 0 9 -4 9 -9z m38 -26 c-4 -24 -31 -40 -52 -32
-15 6 -14 11 11 36 28 29 48 27 41 -4z m11136 18 c8 -21 -10 -41 -24 -27 -11
11 -3 44 10 44 4 0 11 -8 14 -17z m73 10 c-4 -3 -2 -12 5 -20 7 -9 8 -17 1
-24 -7 -7 -14 -5 -23 5 -14 18 -7 46 11 46 7 0 9 -3 6 -7z m2391 -15 c27 -27
7 -78 -29 -78 -21 0 -49 26 -49 45 0 35 53 58 78 33z m-643 -4 c14 -6 14 -8
-1 -25 -19 -21 -37 -8 -27 18 6 15 6 15 28 7z m-12615 -19 c17 -20 5 -62 -20
-70 -44 -14 -80 41 -48 73 17 17 53 15 68 -3z m727 -1 c3 -8 -1 -22 -9 -30
-13 -13 -16 -13 -27 0 -10 12 -10 18 1 30 17 20 27 20 35 0z m1063 6 c0 -13
-30 -13 -50 0 -11 7 -7 10 18 10 17 0 32 -4 32 -10z m9000 -51 c0 -15 -37 -10
-54 7 -19 19 -20 26 -3 43 10 10 16 7 35 -14 12 -14 22 -30 22 -36z m-10222
21 c-5 -32 1 -37 20 -18 9 9 13 7 18 -6 13 -34 -11 -38 -54 -10 -47 31 -50 38
-24 53 32 19 45 13 40 -19z m10281 5 c29 -31 25 -37 -17 -29 -30 6 -43 30 -25
47 10 11 17 8 42 -18z m-10211 -4 c3 -8 -1 -12 -9 -9 -7 2 -15 10 -17 17 -3 8
1 12 9 9 7 -2 15 -10 17 -17z m1217 9 c3 -5 -3 -10 -14 -10 -12 0 -21 5 -21
10 0 6 6 10 14 10 8 0 18 -4 21 -10z m5425 -26 c-116 -54 -164 -67 -225 -61
-88 9 -100 25 -19 25 52 0 94 8 174 35 135 45 165 46 70 1z m3640 -1 c0 -24
-25 -9 -28 17 -3 21 -2 22 12 11 9 -7 16 -20 16 -28z m1750 22 c11 -13 10 -18
-6 -30 -24 -18 -33 -18 -40 0 -15 37 21 60 46 30z m930 7 c0 -4 -9 -13 -20
-20 -11 -7 -20 -19 -20 -28 0 -14 -3 -14 -15 -4 -18 15 -19 32 -3 48 13 13 58
17 58 4z m-1018 -22 c3 -3 -1 -14 -9 -25 -15 -20 -15 -20 -8 3 4 13 2 22 -5
22 -6 0 -8 5 -5 11 4 6 10 7 14 2 3 -4 9 -10 13 -13z m-7232 0 c0 -5 -5 -10
-11 -10 -5 0 -7 5 -4 10 3 6 8 10 11 10 2 0 4 -4 4 -10z m8260 -9 c0 -13 -29
-35 -37 -28 -7 8 15 37 28 37 5 0 9 -4 9 -9z m38 -3 c32 -32 -4 -87 -48 -73
-26 8 -25 27 0 43 11 7 20 19 20 27 0 18 12 19 28 3z m-11338 -26 c0 -4 -4
-13 -9 -20 -6 -11 -10 -11 -18 0 -6 7 -10 21 -10 30 0 13 4 15 19 7 10 -5 18
-13 18 -17z m2956 18 c36 0 7 -17 -58 -34 -87 -22 -188 -64 -285 -116 -63 -34
-73 -37 -84 -23 -16 18 -12 21 98 74 96 46 282 110 301 104 8 -3 20 -5 28 -5z
m7441 -6 c6 -16 -30 -58 -41 -47 -10 10 -7 38 6 51 16 16 27 15 35 -4z
m-12057 -35 c-6 -10 -17 -16 -25 -13 -8 4 -12 10 -9 15 3 5 9 7 14 4 4 -3 6 5
2 17 -5 20 -4 21 11 9 12 -10 14 -18 7 -32z m1380 31 c0 -5 -7 -7 -15 -4 -8 4
-15 8 -15 10 0 2 7 4 15 4 8 0 15 -4 15 -10z m344 4 c17 -7 22 -39 7 -49 -9
-5 -61 36 -61 49 0 8 33 8 54 0z m81 -14 c15 -16 16 -22 5 -35 -12 -14 -15
-13 -31 4 -22 24 -25 51 -6 51 8 0 22 -9 32 -20z m5521 -1 c77 -24 233 -91
282 -121 28 -17 32 -23 20 -34 -12 -12 -30 -6 -118 40 -98 50 -278 116 -318
116 -14 0 -15 2 -2 10 23 15 62 12 136 -11z m1300 -10 c74 -24 238 -107 319
-162 152 -102 323 -267 433 -415 130 -175 243 -365 257 -432 4 -19 16 -41 26
-48 11 -8 16 -19 12 -29 -4 -10 -2 -14 4 -10 6 4 13 -5 16 -20 l5 -27 -27 32
c-14 18 -42 63 -61 100 -30 59 -65 116 -123 202 -10 14 -29 43 -43 64 -15 22
-30 44 -35 50 -5 6 -30 38 -57 71 -94 120 -222 251 -317 326 -178 141 -376
242 -547 280 -63 13 -73 25 -30 35 15 3 32 7 37 9 15 5 63 -4 131 -26z m3341
-10 c-14 -22 -31 -20 -35 6 -5 22 18 37 35 24 9 -8 9 -15 0 -30z m-10524 24
c-7 -2 -19 -2 -25 0 -7 3 -2 5 12 5 14 0 19 -2 13 -5z m72 -3 c3 -5 -3 -10
-15 -10 -12 0 -18 5 -15 10 3 6 10 10 15 10 5 0 12 -4 15 -10z m10370 0 c3 -5
2 -17 -3 -27 -9 -15 -11 -14 -20 4 -15 27 7 49 23 23z m-3538 -6 c-3 -3 -12
-4 -19 -1 -8 3 -5 6 6 6 11 1 17 -2 13 -5z m66 -1 c-7 -2 -19 -2 -25 0 -7 3
-2 5 12 5 14 0 19 -2 13 -5z m-6713 -43 c0 -11 -4 -21 -9 -25 -12 -7 -34 32
-26 45 9 15 35 0 35 -20z m10231 9 c17 -17 19 -23 8 -30 -22 -14 -37 -10 -44
11 -6 18 0 40 11 40 2 0 14 -10 25 -21z m65 -32 c-13 -13 -28 -32 -34 -42 -9
-16 -13 -18 -24 -7 -16 16 2 48 26 44 11 -2 14 2 10 13 -3 8 -3 22 0 31 6 15
8 15 25 0 18 -17 18 -18 -3 -39z m94 20 c0 -22 -8 -41 -23 -56 -27 -24 -57
-20 -57 9 0 26 16 33 40 20 19 -10 20 -9 9 8 -15 23 -6 52 16 52 10 0 15 -10
15 -33z m-10320 4 c0 -11 -4 -22 -9 -25 -11 -7 -23 22 -15 35 9 16 24 10 24
-10z m78 -15 c2 -10 -1 -23 -7 -29 -16 -16 -43 23 -29 41 14 16 32 10 36 -12z
m-198 -32 c-11 -13 -50 -20 -50 -9 0 2 10 15 23 27 17 18 24 20 30 10 5 -8 4
-19 -3 -28z m80 6 c0 -22 -17 -29 -49 -21 l-24 6 27 12 c14 7 26 17 26 23 0 6
5 8 10 5 6 -3 10 -14 10 -25z m78 -18 c4 -23 -18 -29 -53 -15 -15 5 -15 8 6
24 29 22 43 20 47 -9z m11027 -2 c27 -30 7 -70 -34 -70 -41 0 -59 32 -36 66
19 29 46 31 70 4z m-911 -12 c3 -13 2 -26 -3 -31 -11 -11 -34 20 -27 38 8 22
23 18 30 -7z m480 0 c21 -30 20 -50 -4 -76 -56 -60 -139 22 -88 86 18 21 75
15 92 -10z m-394 -8 l20 -20 -22 -10 c-13 -6 -31 -15 -40 -22 -14 -10 -20 -10
-30 0 -19 19 6 40 27 22 13 -11 14 -10 9 4 -6 16 1 46 11 46 3 0 14 -9 25 -20z
m1208 11 c8 -5 12 -21 10 -37 -3 -32 -38 -45 -64 -24 -40 34 9 90 54 61z
m-2722 -32 c24 -16 58 -35 74 -41 17 -5 30 -14 30 -19 0 -15 -154 -46 -243
-49 -23 0 -34 29 -16 41 11 7 11 9 -3 9 -10 0 -18 7 -18 15 0 17 59 35 120 35
31 0 41 3 33 11 -10 10 -97 0 -155 -17 -31 -9 -19 16 15 31 55 24 113 19 163
-16z m-9018 -6 c3 -10 -16 -13 -70 -14 l-73 -1 52 -8 c82 -12 103 -19 103 -35
0 -8 -6 -15 -12 -16 -7 0 -3 -4 10 -9 32 -13 27 -29 -13 -46 -62 -25 -96 -16
-234 64 l-45 26 50 13 c61 17 194 41 213 39 8 0 16 -7 19 -13z m2671 6 c38
-14 45 -36 39 -133 -6 -85 -27 -129 -76 -152 -44 -20 -74 -8 -103 41 l-21 35
-36 -16 c-67 -28 -186 -107 -237 -159 -54 -53 -130 -146 -138 -167 -3 -9 -9
-7 -20 7 -19 25 -8 49 62 133 65 78 158 151 263 206 73 38 82 45 62 50 -78 20
-85 119 -11 151 39 17 172 19 216 4z m3726 -3 c81 -34 72 -131 -15 -155 -19
-5 -27 -10 -17 -10 48 -3 209 -102 291 -180 60 -57 136 -157 136 -180 0 -12
12 -17 53 -19 197 -11 338 -143 248 -233 -24 -24 -38 -29 -75 -29 -25 0 -46
-2 -46 -5 0 -3 22 -36 49 -73 55 -75 99 -159 137 -259 29 -78 64 -215 64 -254
0 -23 -3 -26 -25 -21 -16 3 -27 12 -29 26 -34 186 -97 346 -190 479 -31 44
-46 75 -43 88 9 32 -1 21 -22 -25 -19 -44 -60 -76 -96 -76 -30 0 -75 30 -91
62 -23 45 -14 144 20 231 l28 67 -52 70 c-55 74 -134 151 -206 201 -45 31
-173 94 -177 88 -1 -2 -9 -17 -17 -34 -51 -99 -152 -51 -175 82 -3 23 -3 67 0
97 7 52 9 55 44 64 55 15 167 14 206 -2z m-2695 -64 c-57 -38 -122 -112 -173
-197 -30 -49 -59 -91 -65 -93 -18 -6 88 193 121 225 17 17 55 43 82 57 57 29
71 32 35 8z m-4444 -56 c31 -19 87 -42 125 -52 53 -14 69 -22 69 -36 0 -25
-30 -23 -115 8 -99 36 -113 39 -99 25 7 -7 58 -27 115 -45 102 -33 130 -52 90
-63 -20 -5 -20 -6 -5 -18 20 -14 13 -45 -10 -45 -72 0 -240 93 -312 173 -48
53 -84 99 -84 107 0 4 38 0 85 -7 63 -10 99 -22 141 -47z m5570 -94 c20 -20
46 -57 59 -82 26 -53 69 -179 63 -186 -3 -2 -27 44 -54 103 -39 86 -61 120
-106 166 -32 32 -58 61 -58 63 0 12 63 -30 96 -64z m-1062 6 c15 -24 -13 -53
-43 -43 -23 7 -28 34 -9 53 16 16 38 12 52 -10z m531 -157 c23 -34 24 -41 15
-93 -5 -31 -16 -71 -25 -90 -22 -44 -118 -188 -126 -188 -4 0 -15 33 -25 73
-23 89 -25 230 -4 268 30 52 63 100 66 96 8 -7 -20 -143 -32 -158 -19 -22 -17
-43 5 -63 28 -25 71 -6 71 32 0 15 -4 32 -9 38 -7 7 9 177 19 204 1 3 6 -15
11 -39 5 -24 20 -60 34 -80z m494 95 c5 -27 -26 -48 -50 -35 -19 10 -25 39
-12 53 14 14 58 1 62 -18z m-104 -132 c32 -22 69 -38 182 -79 40 -15 76 -32
79 -37 4 -6 2 -8 -3 -5 -6 4 -44 14 -84 22 -127 26 -210 77 -254 155 -4 8 5 3
21 -11 16 -14 43 -35 59 -45z m462 -91 c638 -421 954 -724 1132 -1086 75 -153
96 -204 111 -272 70 -311 -8 -613 -203 -790 -83 -74 -151 -114 -272 -156 -245
-84 -477 -52 -626 88 -27 25 -49 50 -49 55 0 8 196 240 277 328 30 32 42 60
27 60 -3 0 -26 -18 -52 -39 -70 -58 -188 -134 -273 -176 l-76 -38 -35 26 c-50
38 -105 138 -114 205 -15 119 53 359 138 490 121 186 362 303 658 319 148 7
253 -9 383 -62 29 -12 20 15 -34 110 -92 161 -225 317 -374 442 -166 139 -464
351 -685 488 -131 81 -150 97 -150 128 0 23 3 21 217 -120z m-1045 10 c-3 -56
2 -104 17 -170 31 -135 24 -153 -15 -38 -37 112 -43 183 -18 245 9 22 17 40
18 40 2 0 1 -35 -2 -77z m234 -28 c-4 -22 -20 -63 -36 -90 -27 -48 -140 -184
-140 -169 0 3 27 47 61 96 71 105 94 154 106 223 7 47 8 48 11 15 2 -19 1 -53
-2 -75z m-113 43 c15 -23 1 -48 -28 -48 -14 0 -25 2 -25 4 0 2 -3 11 -6 19 -6
16 23 50 39 44 6 -2 15 -10 20 -19z m-2150 -85 c8 -10 27 -53 41 -95 29 -84
34 -178 12 -216 -15 -29 -64 -62 -91 -62 -29 0 -82 35 -90 59 -3 12 -10 21
-13 21 -11 0 -107 -148 -143 -220 -44 -90 -76 -189 -91 -280 -11 -69 -14 -77
-32 -73 l-21 4 20 -10 c34 -15 132 -142 166 -215 26 -57 31 -76 27 -124 -9
-127 -110 -178 -206 -105 -18 14 -35 23 -37 21 -17 -17 -55 -349 -55 -481 l0
-90 85 -88 c118 -123 185 -236 185 -312 0 -79 -50 -148 -120 -167 -61 -17
-103 -2 -173 61 l-58 51 -55 -38 c-44 -30 -66 -39 -112 -42 -47 -3 -63 0 -91
20 -109 74 -85 219 58 356 54 53 215 162 237 162 4 0 4 -9 1 -20 -3 -11 -1
-18 4 -14 16 9 10 44 -8 44 -15 0 -16 15 -10 166 4 91 14 214 22 273 9 58 17
118 19 133 4 26 4 26 -30 12 -92 -39 -183 13 -184 104 0 91 117 210 263 266
26 10 45 22 42 27 -8 13 12 121 40 214 40 131 109 263 205 386 l20 27 -46 -6
c-54 -6 -90 10 -111 51 -47 91 66 186 247 207 30 4 58 8 61 9 3 0 13 -7 22
-16z m-3130 -432 c57 -27 111 -82 139 -140 33 -67 32 -178 -2 -244 -23 -47
-68 -94 -120 -128 l-25 -17 41 -83 41 -84 99 0 c55 -1 112 -6 127 -13 l28 -12
-47 -90 c-25 -50 -44 -94 -40 -97 3 -3 35 26 72 66 36 39 70 71 74 71 17 0 70
-95 81 -147 22 -99 -24 -228 -101 -278 -16 -11 -30 -27 -30 -36 0 -9 18 -43
39 -77 l39 -60 67 -7 c68 -8 192 9 303 41 l52 15 0 54 c0 31 14 135 30 232 17
97 30 204 30 238 0 64 -28 175 -53 209 -13 18 -15 18 -61 -9 -56 -33 -153 -44
-219 -25 -97 27 -185 127 -203 233 l-6 37 116 0 c108 0 152 12 89 24 -130 24
-193 40 -193 49 0 29 47 102 92 142 167 150 425 56 467 -170 14 -75 -18 -184
-68 -229 -20 -18 -20 -19 -2 -55 31 -60 51 -141 51 -207 0 -35 -13 -143 -30
-241 -16 -98 -30 -200 -30 -226 0 -47 1 -49 23 -42 43 14 143 17 183 6 69 -19
130 -66 158 -124 27 -56 40 -117 25 -117 -5 0 -9 15 -9 33 -1 81 -71 165 -162
192 -94 28 -218 12 -218 -27 0 -39 32 -145 58 -193 l27 -50 85 3 c163 6 282
-20 345 -75 30 -26 72 -84 84 -116 16 -41 4 -32 -20 16 -27 54 -74 104 -122
129 -71 36 -347 48 -347 15 0 -6 24 -34 54 -63 55 -52 134 -96 216 -120 43
-13 44 -14 8 -10 -65 8 -168 65 -236 131 l-64 62 -91 5 c-152 9 -269 62 -381
174 -44 44 -75 66 -112 78 -29 9 -81 35 -118 57 -36 22 -80 42 -98 46 -167 32
-268 212 -212 378 17 47 86 130 129 153 19 10 18 14 -24 100 l-44 90 -78 -5
c-61 -5 -89 -2 -126 12 -57 22 -128 85 -155 140 -30 57 -36 162 -13 220 l17
46 85 -46 c47 -25 90 -44 96 -42 7 2 -18 35 -55 74 -38 38 -68 74 -68 79 0 14
64 54 112 70 56 18 146 12 201 -15z m9512 -39 c70 -39 104 -92 118 -184 10
-69 9 -78 -12 -121 -17 -36 -30 -48 -59 -58 -20 -6 -50 -22 -65 -35 -15 -13
-45 -29 -67 -35 -33 -10 -44 -9 -84 10 -85 42 -137 130 -138 235 0 68 7 87 59
156 37 49 57 57 143 59 42 0 66 -6 105 -27z m-5485 5 c0 -2 -15 -16 -32 -33
l-33 -29 29 33 c28 30 36 37 36 29z m1518 -143 c170 -137 229 -253 182 -360
-28 -64 -60 -87 -130 -92 -52 -3 -59 -1 -123 43 l-69 46 -43 -40 c-104 -96
-204 -92 -273 9 -20 30 -23 44 -19 92 6 66 40 146 88 203 57 68 125 131 180
169 l53 35 38 -22 c22 -12 74 -49 116 -83z m-1643 16 c-3 -5 -12 -10 -18 -10
-7 0 -6 4 3 10 19 12 23 12 15 0z m-55 -54 c0 -2 -8 -10 -17 -17 -16 -13 -17
-12 -4 4 13 16 21 21 21 13z m-80 -110 c0 -2 -8 -10 -17 -17 -16 -13 -17 -12
-4 4 13 16 21 21 21 13z m7068 -30 c86 -43 152 -153 152 -253 0 -50 7 -48
-115 -28 -49 8 -94 15 -99 15 -22 0 13 -19 94 -50 47 -18 89 -36 93 -40 13
-11 -16 -60 -60 -102 -77 -75 -181 -99 -288 -69 -38 11 -65 29 -110 74 l-59
60 -44 -49 c-76 -85 -98 -142 -143 -371 -23 -114 -47 -223 -55 -242 -8 -18
-14 -37 -14 -42 0 -11 131 -99 206 -138 32 -17 84 -36 115 -43 l56 -12 50 37
c77 56 77 57 46 117 -68 131 -30 286 91 369 l45 31 26 -58 c15 -31 34 -74 42
-94 19 -47 36 -50 28 -5 -10 61 -25 162 -25 171 0 5 26 6 59 3 54 -4 122 -29
163 -59 16 -11 27 -4 89 58 l72 72 -25 33 c-87 118 -75 272 28 376 115 116
287 111 403 -12 28 -29 51 -58 51 -63 0 -14 -36 -35 -117 -68 -73 -29 -97 -50
-45 -40 15 3 56 8 92 11 36 4 74 9 84 12 18 5 19 1 14 -54 -10 -109 -68 -197
-160 -244 -81 -41 -202 -35 -278 15 l-35 23 -74 -67 -75 -68 32 -49 c95 -148
45 -332 -113 -416 -32 -18 -59 -22 -140 -23 -55 -1 -120 -6 -145 -12 -25 -7
-77 -12 -116 -12 -58 0 -82 -5 -134 -31 -138 -67 -312 -76 -442 -24 l-65 26
-59 -30 c-96 -48 -206 -68 -284 -52 -41 8 -37 9 45 10 50 1 113 7 140 15 57
15 145 56 145 67 0 9 -128 59 -209 83 -111 32 -206 14 -288 -57 l-48 -41 35
37 c19 21 57 48 84 62 89 44 181 33 375 -48 l74 -30 66 69 c36 39 75 87 86
108 l20 39 -34 28 c-89 74 -257 79 -335 11 -10 -9 -32 -37 -48 -61 -30 -48
-38 -49 -14 -2 25 47 91 99 149 116 76 22 186 -1 254 -55 14 -11 29 -17 34
-15 13 8 26 61 68 276 45 224 66 278 144 365 53 58 54 59 41 94 -31 86 -7 201
57 274 94 106 225 134 347 72z m-7110 -28 c-8 -13 -30 -49 -48 -80 -30 -55
-53 -82 -29 -35 24 47 81 137 86 137 3 0 -1 -10 -9 -22z m4607 -93 c102 -44
196 -122 234 -193 31 -59 4 -150 -51 -173 -28 -12 -96 -8 -132 7 -18 7 -19 4
-12 -37 21 -130 36 -299 36 -416 0 -120 -2 -133 -17 -134 -10 0 -13 -3 -7 -5
7 -3 11 -13 9 -22 -1 -9 0 -11 2 -4 6 17 8 16 72 -20 126 -71 247 -191 277
-275 27 -78 11 -148 -45 -196 -57 -48 -169 -33 -238 32 -12 12 -25 21 -29 21
-3 0 -31 -22 -61 -50 -48 -44 -101 -70 -143 -70 -8 0 -34 9 -58 20 -36 16 -47
29 -69 76 -20 45 -24 65 -19 101 10 78 72 178 173 283 l93 95 0 130 c0 124
-17 288 -41 402 l-10 53 -37 -29 c-20 -17 -49 -33 -64 -36 -43 -11 -95 12
-123 53 -58 85 -20 202 123 379 31 37 36 40 65 33 18 -4 50 -15 72 -25z
m-4106 -40 c242 -57 442 -208 527 -400 87 -199 109 -377 59 -477 -28 -53 -84
-117 -110 -124 -48 -12 -284 129 -447 266 -29 25 -46 36 -38 25 8 -11 22 -25
30 -32 8 -6 15 -16 15 -21 0 -5 47 -63 105 -128 210 -237 222 -252 215 -273
-9 -28 -90 -98 -147 -127 -156 -79 -407 -73 -595 15 -212 100 -353 269 -409
491 -25 98 -25 322 0 424 34 142 105 278 150 290 12 3 29 18 38 33 13 21 18
23 18 11 0 -22 -6 -22 58 2 134 51 372 62 531 25z m1276 -956 c4 -6 -1 -17
-11 -24 -16 -12 -21 -12 -33 0 -7 7 -10 18 -7 24 9 14 43 14 51 0z m-57 -32
c9 -10 6 -17 -8 -30 -40 -34 -68 -13 -33 25 19 21 27 22 41 5z m91 -14 c0 -10
-4 -26 -8 -37 -6 -17 -9 -16 -24 8 -20 30 -15 46 14 46 12 0 19 -7 18 -17z
m-49 -33 c0 -14 -33 -21 -44 -10 -8 8 -7 13 3 19 15 10 41 4 41 -9z m-45 -29
c5 -9 -36 -61 -47 -61 -4 0 -3 50 1 68 2 7 41 1 46 -7z m78 -14 c2 -7 0 -23
-4 -37 -4 -15 -7 -18 -8 -8 -1 9 -11 24 -23 33 -19 13 -20 17 -9 24 17 11 38
4 44 -12z m-36 -33 c4 -12 -35 -26 -49 -18 -13 8 13 35 30 32 9 -2 17 -8 19
-14z m-58 -50 c-14 -17 -40 -18 -36 -1 3 17 18 26 34 20 10 -4 11 -9 2 -19z
m79 14 c15 -15 16 -48 2 -48 -5 0 -10 6 -10 14 0 8 -7 17 -16 20 -8 3 -12 10
-9 16 8 13 18 13 33 -2z m-32 -30 c4 -6 0 -16 -9 -23 -25 -18 -21 -26 8 -19
37 9 52 -9 60 -74 10 -89 53 -283 80 -369 43 -132 50 -208 36 -378 -12 -143
-46 -378 -57 -396 -2 -4 -16 -4 -31 2 -20 7 -30 6 -42 -5 -15 -14 -18 -13 -31
3 -12 18 -15 18 -37 4 -12 -8 -23 -23 -23 -32 1 -14 2 -14 11 2 12 20 49 23
49 4 0 -7 -5 -18 -12 -25 -6 -6 -9 -15 -5 -18 3 -4 14 1 23 10 15 16 18 16 43
0 l26 -17 -23 25 c-25 27 -21 38 15 38 20 0 23 -5 23 -34 0 -56 -81 -316 -99
-316 -4 0 -27 20 -52 45 -24 24 -51 45 -59 45 -8 0 -28 -13 -43 -30 -24 -25
-31 -28 -51 -18 -17 7 -29 7 -42 0 -17 -10 -15 -11 10 -9 16 1 31 -3 33 -9 8
-23 -27 -22 -74 2 -26 13 -40 18 -30 11 22 -18 22 -28 -4 -55 -25 -27 -39 -21
-39 19 0 16 -4 29 -8 29 -4 0 -13 30 -20 68 -7 37 -23 126 -37 197 -14 72 -28
189 -31 260 -4 72 -8 132 -10 134 -2 2 -4 -36 -4 -84 l0 -89 -45 44 c-53 52
-71 95 -85 207 -6 45 -18 105 -26 134 -9 28 -13 57 -10 65 10 25 35 15 56 -23
12 -21 18 -29 14 -18 -13 39 -10 60 11 60 14 0 23 -11 31 -40 12 -40 12 -40
13 -8 1 43 16 49 38 16 14 -22 18 -47 17 -123 l0 -95 14 85 c15 93 34 124 69
117 18 -3 21 -1 12 9 -23 28 22 47 51 22 12 -11 12 -10 1 5 -19 24 -44 21 -69
-8 -25 -29 -46 -33 -38 -7 3 9 17 62 31 117 55 212 74 258 144 349 26 34 60
82 75 109 18 31 33 47 47 47 11 0 17 5 14 10 -9 14 8 13 23 -2 16 -16 15 -50
0 -67 -10 -11 -10 -13 0 -7 8 5 12 0 12 -14 0 -13 -4 -19 -12 -14 -7 4 -8 3
-4 -5 4 -6 2 -18 -4 -26 -7 -8 -9 -26 -6 -39 3 -14 2 -27 -3 -30 -5 -3 -12
-27 -16 -52 -4 -26 -12 -55 -18 -65 -9 -14 -8 -21 2 -31 11 -11 12 -9 6 10 -5
16 -2 22 9 22 9 0 16 -6 17 -12 1 -7 8 7 16 32 9 27 17 101 20 185 5 130 11
154 35 155 4 0 10 -5 14 -12z m-236 -82 c12 -42 7 -101 -9 -111 -5 -2 -11 28
-15 67 -3 39 -11 77 -16 83 -5 7 -7 15 -3 18 12 12 30 -13 43 -57z m-54 32 c4
-6 13 -45 19 -86 l12 -74 -33 -61 -33 -62 -10 28 c-31 82 -39 252 -12 252 17
0 29 -40 32 -107 2 -27 7 -52 12 -55 11 -7 1 105 -13 142 -12 32 9 50 26 23z
m514 -84 c21 -53 11 -106 -33 -188 -38 -71 -57 -90 -64 -61 -1 6 -9 34 -17 63
-8 29 -18 83 -22 119 -5 53 -4 65 7 61 10 -4 13 -22 12 -69 -2 -46 0 -57 6
-39 5 14 9 40 10 58 1 48 18 77 37 61 9 -7 14 -34 15 -78 1 -49 3 -58 8 -36 4
17 6 54 3 83 -4 44 -2 52 12 52 9 0 21 -12 26 -26z m-284 -71 c-11 -11 -19 6
-11 24 8 17 8 17 12 0 3 -10 2 -21 -1 -24z m-3672 -14 c59 -44 86 -88 86 -141
-1 -45 -33 -113 -64 -133 -28 -19 -36 -38 -11 -29 8 4 17 -1 21 -10 3 -9 11
-13 17 -9 5 3 16 -2 24 -12 12 -17 13 -16 13 13 0 36 27 95 59 129 34 35 91
46 155 29 30 -7 57 -11 60 -8 13 12 5 -141 -8 -172 -14 -34 -61 -76 -106 -96
-20 -8 -14 -9 30 -5 30 3 72 8 94 11 30 5 37 3 34 -7 -3 -9 -33 -18 -84 -24
l-79 -10 47 -13 c56 -14 104 -59 117 -110 24 -89 24 -86 -6 -100 -15 -7 -44
-22 -63 -32 -42 -24 -90 -25 -133 -4 -25 12 -19 4 28 -39 33 -30 57 -58 52
-63 -4 -4 -22 6 -40 22 -17 16 -60 55 -94 87 -42 39 -67 55 -78 51 -12 -5 -6
-11 23 -24 87 -39 121 -157 67 -231 -13 -19 -30 -44 -36 -56 -7 -13 -16 -23
-20 -23 -5 0 -38 14 -74 31 -86 42 -108 76 -103 162 2 34 8 70 13 81 6 14 5
18 -6 14 -10 -3 -20 -44 -33 -134 -10 -71 -20 -131 -22 -133 -1 -1 -7 0 -12 3
-7 4 14 192 29 256 3 10 -2 14 -14 12 -10 -2 -25 2 -32 8 -15 13 -15 9 4 -57
8 -31 9 -54 1 -82 -20 -77 -59 -104 -162 -114 l-46 -4 -26 57 c-14 32 -26 72
-26 89 0 75 54 138 141 165 27 9 36 14 22 15 -12 1 -23 9 -25 19 -3 13 -27 -5
-99 -75 -52 -51 -101 -93 -108 -93 -6 0 -11 -6 -10 -12 4 -30 -2 -39 -23 -36
-29 4 -32 41 -4 46 11 2 27 12 35 22 9 9 52 50 96 91 44 41 83 84 87 97 8 27
-8 30 -17 3 -10 -32 -81 -89 -119 -96 -46 -9 -100 10 -146 51 l-38 34 24 58
c12 31 36 69 52 83 55 49 165 46 222 -6 15 -14 16 -13 15 6 -2 23 -8 26 -168
84 -46 16 -75 31 -69 37 5 5 25 2 48 -8 87 -36 195 -73 190 -65 -5 8 29 25 47
22 4 -1 7 4 7 10 0 7 -7 8 -17 3 -66 -28 -158 2 -201 66 -20 29 -22 45 -20
109 2 57 6 75 18 76 133 19 163 15 208 -28 35 -32 62 -91 62 -133 0 -41 8 -41
15 -1 3 15 -10 64 -30 117 -36 93 -42 120 -27 120 5 0 16 -25 26 -55 18 -60
35 -80 28 -36 -6 40 28 98 79 137 24 18 45 33 46 33 1 1 27 -17 57 -40z m-228
0 c3 -6 -1 -18 -10 -27 -15 -15 -17 -15 -32 0 -19 19 -11 38 16 38 10 0 22 -5
26 -11z m3894 -40 c0 -11 -4 -17 -10 -14 -5 3 -10 13 -10 21 0 8 5 14 10 14 6
0 10 -9 10 -21z m-3452 -12 c4 -20 -25 -34 -40 -19 -15 15 -1 44 19 40 10 -2
19 -11 21 -21z m3438 -54 c-11 -11 -19 6 -11 24 8 17 8 17 12 0 3 -10 2 -21
-1 -24z m-3466 11 c0 -8 -110 -185 -127 -203 -43 -49 7 52 93 187 13 20 34 30
34 16z m7605 -34 c30 -22 62 -54 70 -70 30 -58 12 -143 -42 -195 -25 -24 -31
-35 -20 -35 9 0 20 -7 24 -15 6 -10 13 -11 23 -5 13 8 12 10 -2 10 -10 0 -18
2 -18 5 0 6 55 103 99 178 13 20 30 37 38 37 15 0 4 -23 -47 -100 -48 -73 -61
-100 -48 -100 7 1 23 23 36 50 18 39 32 53 68 71 43 20 51 21 115 10 l69 -13
0 -72 c0 -90 -20 -130 -84 -170 -36 -23 -60 -30 -97 -30 -31 0 -46 -3 -40 -9
6 -6 55 -4 132 7 114 15 141 15 126 0 -3 -4 -66 -14 -139 -24 -73 -10 -126
-18 -118 -19 13 -1 13 -2 0 -12 -16 -12 -13 -11 65 12 89 26 175 -26 203 -121
7 -25 15 -50 18 -55 5 -12 -132 -85 -159 -85 -10 0 -34 7 -54 15 l-37 16 55
-59 c32 -36 62 -59 74 -58 23 1 33 -33 14 -45 -14 -9 -39 6 -40 25 -1 18 -189
181 -210 182 -28 2 -23 -4 14 -20 44 -18 94 -80 102 -125 7 -48 -6 -91 -47
-143 -18 -24 -33 -44 -34 -46 -1 -2 -33 12 -70 30 -84 40 -114 79 -114 147 0
26 8 63 19 83 16 33 17 38 2 43 -8 3 -12 3 -8 -1 4 -4 0 -12 -8 -18 -11 -8
-21 -51 -32 -139 -12 -91 -21 -127 -30 -127 -9 0 -12 8 -8 23 4 17 35 240 35
250 0 1 -11 2 -26 2 -20 0 -24 -4 -19 -20 18 -60 17 -95 -5 -141 -26 -52 -71
-78 -151 -87 l-47 -4 -27 68 c-22 52 -26 76 -20 105 10 57 57 109 118 133 29
11 44 20 35 20 -9 1 -18 10 -20 22 l-3 20 -23 -21 c-12 -12 -19 -26 -16 -32 5
-7 2 -8 -5 -3 -9 5 -38 -17 -86 -65 -40 -40 -75 -68 -79 -62 -3 5 36 48 88 96
84 77 121 126 95 126 -5 0 -9 -4 -9 -10 0 -22 -64 -80 -106 -96 -59 -22 -105
-9 -158 45 l-39 40 23 56 c27 67 66 102 124 110 57 9 99 -1 135 -30 27 -23 28
-23 26 -3 -1 17 -23 29 -116 65 -63 24 -118 48 -123 53 -5 5 -16 4 -27 -3 -23
-14 -45 3 -36 27 8 21 43 20 51 0 4 -9 9 -14 12 -11 3 3 36 -6 72 -19 l67 -25
-27 23 c-45 39 -59 80 -54 156 l4 67 71 9 c60 7 78 6 111 -9 51 -23 90 -80
100 -147 4 -29 8 -43 9 -30 0 13 5 20 11 17 9 -6 -27 101 -64 187 -11 25 -12
39 -5 43 15 10 16 7 43 -71 l23 -69 0 50 c-1 63 18 99 74 141 24 18 45 33 47
33 2 1 27 -17 57 -39z m-237 -7 c4 -25 -22 -37 -38 -17 -10 11 -10 17 0 29 17
20 34 14 38 -12z m450 -46 c4 -20 -25 -34 -40 -19 -15 15 -1 44 19 40 10 -2
19 -11 21 -21z m-8558 -132 c0 -18 -5 -25 -19 -25 -11 0 -23 5 -26 10 -11 18
3 40 25 40 15 0 20 -7 20 -25z m1018 -118 c4 -20 -25 -34 -40 -19 -15 15 -1
44 19 40 10 -2 19 -11 21 -21z m6312 19 c0 -1 -22 -17 -49 -34 -58 -35 -106
-98 -122 -156 -19 -66 -11 -316 10 -316 15 0 81 77 115 134 19 32 41 84 47
115 14 65 32 104 23 51 -17 -100 -58 -185 -128 -258 l-51 -54 -1 -102 c-1 -85
-5 -113 -29 -176 -32 -86 -78 -162 -138 -228 -31 -34 -49 -67 -65 -117 -12
-39 -35 -91 -50 -116 -16 -24 -32 -64 -36 -89 -23 -143 -161 -250 -306 -237
-77 7 -125 31 -186 93 l-50 51 -85 -47 c-67 -37 -83 -50 -80 -66 2 -10 4 -57
5 -104 0 -63 -4 -93 -17 -117 -66 -122 -198 -184 -326 -153 -28 6 -51 15 -51
18 0 4 18 49 41 100 23 51 39 95 36 98 -3 3 -38 -28 -78 -70 -70 -73 -73 -75
-92 -58 -10 9 -31 40 -45 67 -52 101 -28 238 59 324 56 57 104 75 194 76 98 0
158 -26 219 -97 23 -27 45 -48 50 -48 5 0 46 20 91 45 l83 45 -14 37 c-22 63
-13 190 16 208 4 3 45 -13 90 -36 45 -22 84 -38 88 -35 3 4 -8 18 -25 34 -121
109 -116 102 -99 121 9 10 40 31 69 47 45 25 62 29 132 29 93 0 140 -20 206
-86 38 -38 40 -39 67 -25 15 8 46 28 70 45 l42 31 0 83 c0 80 -29 218 -63 300
-13 30 -17 33 -53 29 -21 -2 -119 6 -217 17 -208 25 -295 26 -358 7 -44 -14
-129 -53 -129 -60 0 -2 16 -33 35 -70 41 -78 46 -149 18 -232 -22 -66 -101
-145 -167 -167 -81 -28 -82 -27 -90 60 -3 42 -6 94 -6 117 0 72 -18 25 -32
-84 -13 -103 -14 -105 -38 -102 -38 6 -119 53 -146 85 -44 52 -67 109 -72 178
-11 156 106 285 269 297 57 4 75 1 127 -23 34 -15 67 -34 73 -41 9 -11 22 -8
71 17 101 51 167 60 321 43 411 -44 384 -46 362 17 -19 54 -19 145 0 200 22
61 55 101 111 130 52 28 119 46 109 29 -3 -6 -15 -10 -26 -10 -68 0 -162 -78
-184 -154 -18 -60 -18 -148 -1 -196 12 -32 16 -35 52 -33 48 2 158 44 197 76
l28 22 -11 115 c-15 177 7 268 83 339 46 44 107 82 107 67z m-6002 -40 c47
-29 99 -88 121 -135 17 -39 22 -246 8 -328 -7 -42 -7 -42 38 -69 54 -31 126
-59 178 -68 36 -7 38 -5 52 28 9 20 15 67 15 110 0 129 -46 198 -161 242 -42
16 -52 22 -29 18 62 -11 133 -57 165 -109 28 -45 30 -55 30 -144 0 -53 -4
-108 -8 -122 -7 -23 -5 -27 17 -33 14 -3 126 5 250 19 256 28 302 24 417 -32
l60 -30 25 20 c39 31 119 57 174 57 104 0 205 -64 256 -161 26 -51 30 -155 9
-220 -24 -70 -101 -149 -169 -172 -27 -9 -51 -15 -54 -13 -3 4 -31 186 -32
209 0 5 -4 5 -10 2 -5 -3 -10 -32 -10 -64 0 -32 -3 -79 -6 -105 -6 -39 -10
-46 -29 -46 -34 0 -141 58 -170 92 -86 102 -97 243 -28 345 32 46 25 58 -51
90 -103 43 -154 43 -504 4 -57 -7 -117 -9 -132 -6 -26 6 -31 3 -44 -29 -48
-114 -79 -324 -57 -380 4 -10 36 -36 71 -57 l63 -39 36 39 c59 63 113 86 206
86 87 0 151 -24 197 -73 l23 -24 -23 -18 c-60 -49 -124 -111 -119 -116 3 -3
41 13 86 35 44 23 83 41 86 41 3 0 13 -16 21 -36 18 -42 20 -123 4 -174 -12
-43 -13 -50 -1 -50 5 0 40 -18 79 -40 66 -39 102 -49 102 -31 0 4 18 29 40 54
122 138 362 106 453 -61 54 -99 42 -234 -26 -309 l-33 -35 -73 77 c-40 42 -76
74 -79 70 -3 -3 13 -43 36 -88 23 -46 42 -90 42 -100 0 -22 -38 -32 -125 -32
-60 0 -78 5 -125 31 -67 38 -125 110 -141 177 -11 46 -8 127 5 172 6 17 -7 27
-80 66 l-87 46 -56 -57 c-44 -44 -69 -60 -115 -74 -164 -51 -332 46 -367 212
-6 30 -26 82 -44 116 -19 34 -41 88 -50 121 -14 46 -29 73 -69 115 -107 113
-160 250 -154 397 l3 88 -32 28 c-71 62 -154 227 -152 301 0 11 8 -11 19 -49
10 -39 32 -95 50 -125 33 -57 109 -142 120 -135 19 12 20 287 0 335 -22 56
-69 109 -124 140 -28 17 -45 30 -38 30 7 0 29 -11 50 -24z m3280 -38 c2 -13
-10 -61 -27 -106 -16 -45 -26 -82 -21 -82 11 0 34 60 56 148 14 55 23 72 36
72 10 0 18 -7 18 -15 0 -29 -52 -144 -96 -211 -24 -37 -42 -70 -38 -73 14 -15
96 128 130 229 16 49 26 65 40 65 64 0 -15 -200 -126 -319 -25 -27 -65 -62
-89 -78 l-43 -30 5 28 c3 16 9 55 12 87 4 38 17 77 36 109 25 42 46 96 75 196
6 22 29 8 32 -20z m4200 -71 c4 -20 -25 -34 -40 -19 -15 15 -1 44 19 40 10 -2
19 -11 21 -21z m-7920 -291 c5 -24 -10 -38 -31 -30 -20 7 -22 25 -5 42 16 16
32 10 36 -12z m6977 -76 c8 -13 -13 -40 -30 -40 -15 0 -28 27 -19 41 7 12 41
11 49 -1z m-7420 -95 c0 -23 -34 -33 -46 -14 -10 17 9 41 30 37 9 -2 16 -12
16 -23z m7790 -130 c0 -23 -34 -33 -45 -14 -13 20 1 40 24 37 13 -2 21 -10 21
-23z m-4036 -179 c8 -10 8 -16 -1 -24 -16 -13 -54 11 -43 27 9 15 30 14 44 -3z
m-43 -37 c3 -6 2 -15 -2 -19 -12 -12 -38 5 -30 19 9 14 23 14 32 0z m88 3 c2
-4 -4 -13 -14 -20 -20 -12 -36 0 -25 18 7 12 32 13 39 2z m-215 -60 c-16 -11
-23 -12 -32 -2 -17 17 21 44 40 28 11 -9 10 -13 -8 -26z m94 20 c3 -4 -3 -17
-13 -29 -13 -16 -20 -19 -29 -10 -15 15 -14 34 2 40 19 8 35 8 40 -1z m151 0
c2 -4 1 -14 -4 -22 -7 -12 -10 -12 -16 3 -3 9 -10 14 -15 11 -5 -3 -9 0 -9 5
0 13 36 15 44 3z m-83 -11 c5 8 9 10 9 4 0 -5 -4 -16 -8 -23 -6 -9 -13 -7 -28
10 -17 20 -17 21 -1 8 16 -12 20 -12 28 1z m-191 -30 c0 -13 -26 -32 -33 -24
-14 13 -6 33 13 33 11 0 20 -4 20 -9z m75 -1 c4 -6 1 -17 -5 -25 -10 -13 -14
-12 -27 0 -8 8 -19 15 -24 15 -6 0 -7 5 -4 10 8 13 52 13 60 0z m88 -4 c9 -22
-15 -37 -36 -22 -9 7 -17 18 -17 25 0 16 47 14 53 -3z m81 -4 c-3 -33 -5 -34
-24 -17 -11 10 -17 21 -15 25 8 12 40 5 39 -8z m-209 -23 c4 -5 -1 -19 -11
-30 -17 -19 -19 -19 -31 -3 -9 13 -10 21 -2 31 14 16 35 17 44 2z m78 -29
c-16 -15 -19 -15 -30 -1 -16 22 13 47 34 29 11 -9 10 -14 -4 -28z m103 15 c6
-14 -11 -45 -25 -45 -11 0 -32 40 -26 50 10 15 45 12 51 -5z m-148 -27 c8 -8
8 -17 1 -30 -9 -17 -8 -18 10 -9 25 14 53 4 49 -18 -5 -26 -52 -25 -83 2 -21
17 -26 28 -21 45 8 24 26 28 44 10z m94 -5 c22 -20 23 -29 3 -37 -23 -8 -57
24 -43 41 14 17 18 16 40 -4z m-146 -281 c37 -24 36 -91 -1 -106 -44 -17 -95
12 -95 54 0 42 62 75 96 52z m218 -248 c30 -30 13 -74 -29 -74 -60 0 -59 88 2
90 6 0 19 -7 27 -16z m-206 -216 c28 -28 7 -78 -33 -78 -27 0 -45 18 -45 47 0
36 52 57 78 31z m172 -138 c6 -11 7 -27 3 -34 -6 -12 -13 -10 -36 10 -16 13
-25 29 -22 34 11 17 44 11 55 -10z m-75 -39 c3 -11 15 -23 26 -26 23 -8 24
-18 4 -35 -20 -17 -62 -5 -70 20 -6 20 10 60 25 60 5 0 11 -9 15 -19z m35 4
c7 -9 10 -18 7 -22 -8 -7 -37 15 -37 28 0 14 16 11 30 -6z m-150 -230 c31 -38
-27 -83 -62 -47 -16 16 -18 23 -9 41 13 24 53 28 71 6z m9270 -149 c0 -2 -7
-7 -16 -10 -8 -3 -12 -2 -9 4 6 10 25 14 25 6z m-1970 -32 c0 -8 -5 -12 -10
-9 -6 4 -8 11 -5 16 9 14 15 11 15 -7z m-340 -8 c0 -2 -8 -10 -17 -17 -16 -13
-17 -12 -4 4 13 16 21 21 21 13z m305 -186 c-22 -4 -52 -10 -67 -15 -16 -4
-28 -5 -28 -1 0 9 62 24 100 24 l35 -1 -40 -7z m345 -20 c11 -7 0 -10 -39 -10
-39 0 -58 -5 -68 -17 -13 -16 -13 -16 -4 3 6 12 8 23 6 26 -10 9 91 8 105 -2z
m0 -40 c0 -5 -7 -10 -16 -10 -8 0 -12 5 -9 10 3 6 10 10 16 10 5 0 9 -4 9 -10z
m-65 -28 c17 4 23 2 17 -4 -14 -14 -55 -6 -59 12 -4 12 -3 13 5 1 6 -8 20 -12
37 -9z m205 1 c0 -10 -4 -14 -8 -8 -4 6 -11 13 -16 18 -5 4 -2 7 7 7 10 0 17
-8 17 -17z m-103 -19 c-6 -6 -47 9 -47 17 0 5 11 3 25 -3 14 -6 24 -13 22 -14z
m172 -20 c10 -9 -35 -3 -49 6 -11 8 -7 9 15 4 17 -4 32 -8 34 -10z m115 -5 c8
-9 6 -10 -9 -4 -11 4 -36 11 -55 16 -33 8 -33 8 9 4 24 -2 49 -9 55 -16z m43
-15 c-3 -3 -12 -4 -19 -1 -8 3 -5 6 6 6 11 1 17 -2 13 -5z m820 -100 c-3 -3
-12 -4 -19 -1 -8 3 -5 6 6 6 11 1 17 -2 13 -5z m-123 -49 c-21 -21 -29 -23
-40 -14 -27 22 -12 35 43 38 22 1 22 1 -3 -24z m-776 -25 c-7 -10 -14 -17 -17
-15 -4 4 18 35 25 35 2 0 -1 -9 -8 -20z m-41 -102 c-3 -7 -5 -2 -5 12 0 14 2
19 5 13 2 -7 2 -19 0 -25z"/>
<path d="M12082 11518 c-7 -24 -15 -48 -18 -53 -4 -10 104 -81 112 -73 10 11
-59 168 -74 168 -4 0 -13 -19 -20 -42z"/>
<path d="M12208 11273 c2 -41 -6 -93 -28 -178 -44 -166 -46 -155 25 -174 33
-9 87 -31 119 -49 33 -18 62 -29 65 -26 3 3 6 42 5 87 0 91 -25 178 -73 262
-30 52 -97 135 -109 135 -4 0 -6 -26 -4 -57z"/>
<path d="M6627 11507 c-21 -33 -57 -122 -57 -143 0 -12 9 -10 43 11 23 14 48
29 55 34 11 6 10 18 -5 65 l-19 58 -17 -25z"/>
<path d="M6495 11258 c-95 -112 -136 -214 -143 -355 -2 -57 -2 -103 1 -103 4
0 35 15 69 34 35 19 91 43 126 52 49 14 61 21 57 33 -32 82 -65 234 -65 298 0
40 -4 73 -9 73 -4 0 -21 -15 -36 -32z"/>
<path d="M13100 10892 c24 -10 36 -10 38 -3 2 6 8 9 12 6 5 -3 11 -2 14 3 3 4
-18 8 -47 8 l-51 0 34 -14z"/>
<path d="M13298 10900 c29 -34 3 -71 -30 -42 -10 8 -18 11 -18 6 0 -17 41 -37
53 -25 7 7 16 7 29 0 12 -7 24 -6 36 1 16 11 16 11 0 6 -26 -8 -48 3 -48 24 0
10 -8 24 -17 31 -15 11 -16 11 -5 -1z"/>
<path d="M13338 10893 c7 -3 16 -2 19 1 4 3 -2 6 -13 5 -11 0 -14 -3 -6 -6z"/>
<path d="M13409 10851 c-8 -9 -13 -23 -11 -29 2 -7 -2 -19 -8 -27 -14 -17 1
-20 17 -4 6 6 9 18 6 26 -3 7 3 23 12 33 10 11 14 20 9 19 -5 0 -16 -8 -25
-18z"/>
<path d="M13190 10850 c8 -5 20 -10 25 -10 6 0 3 5 -5 10 -8 5 -19 10 -25 10
-5 0 -3 -5 5 -10z"/>
<path d="M13280 10810 c0 -5 -9 -10 -20 -10 -11 0 -20 -4 -20 -9 0 -4 11 -6
25 -3 14 2 25 11 25 18 0 8 -2 14 -5 14 -3 0 -5 -4 -5 -10z"/>
<path d="M13334 10803 c-9 -15 -7 -18 14 -20 14 0 21 2 15 5 -5 4 -12 13 -14
20 -3 8 -7 7 -15 -5z"/>
<path d="M13585 10789 c-13 -19 5 -23 38 -6 l32 16 -32 0 c-17 1 -35 -4 -38
-10z"/>
<path d="M13358 10746 c-17 -12 -16 -14 4 -32 19 -16 20 -16 9 -1 -11 14 -11
20 -1 32 15 18 11 19 -12 1z"/>
<path d="M13260 10740 c-8 -5 -10 -10 -5 -10 6 0 17 5 25 10 8 5 11 10 5 10
-5 0 -17 -5 -25 -10z"/>
<path d="M13307 10740 c9 -9 9 -19 2 -34 -10 -21 -10 -21 6 -1 17 22 16 37 -6
43 -11 4 -11 2 -2 -8z"/>
<path d="M13418 10743 c7 -3 16 -2 19 1 4 3 -2 6 -13 5 -11 0 -14 -3 -6 -6z"/>
<path d="M13541 10659 c-1 -16 9 -34 26 -50 22 -19 24 -20 10 -3 -10 12 -22
35 -27 50 l-8 29 -1 -26z"/>
<path d="M9142 11088 c-7 -7 -11 -23 -11 -37 l2 -26 4 25 c3 14 10 31 15 38
13 15 6 16 -10 0z"/>
<path d="M9454 11030 c1 -17 4 -30 9 -30 10 0 9 48 -2 54 -4 3 -8 -8 -7 -24z"/>
<path d="M9107 10972 c-14 -14 -21 -14 -37 -4 -30 18 -35 15 -14 -9 18 -20 18
-21 -1 -36 -20 -16 -20 -16 0 -8 11 5 31 8 44 8 16 -1 20 2 12 10 -8 8 -6 16
6 29 21 23 12 33 -10 10z"/>
<path d="M9104 10742 c24 -26 25 -30 11 -42 -12 -10 -18 -10 -30 0 -9 7 -14
18 -12 24 3 6 -6 11 -18 11 -16 0 -20 -4 -14 -11 5 -6 5 -15 1 -19 -4 -5 -2
-6 3 -2 6 3 19 -1 30 -9 18 -14 18 -15 1 -32 -16 -16 -18 -16 -36 6 -10 12
-22 22 -26 22 -4 0 1 -9 12 -21 15 -17 16 -23 6 -40 -7 -10 -8 -19 -3 -19 6 0
14 6 18 13 4 7 20 20 35 29 23 16 27 16 39 2 10 -13 10 -17 -2 -25 -8 -5 -19
-9 -26 -9 -7 0 -10 -6 -7 -14 3 -8 12 -12 20 -9 8 3 14 0 14 -6 0 -6 5 -11 11
-11 8 0 8 4 0 14 -8 10 -8 16 3 25 10 8 16 9 21 1 3 -5 11 -10 17 -10 6 0 5 6
-3 16 -11 13 -10 17 4 25 21 12 22 27 0 51 -13 14 -14 21 -5 30 20 20 13 32
-7 14 -15 -14 -24 -15 -40 -6 -12 6 -21 15 -21 20 0 6 -5 10 -12 10 -6 0 1
-13 16 -28z m70 -73 c-7 -12 -41 -11 -49 1 -4 6 -1 18 6 26 10 13 14 12 30 -2
10 -9 16 -21 13 -25z"/>
<path d="M9478 10753 c-10 -2 -18 -9 -18 -14 0 -13 12 -11 34 6 20 15 16 17
-16 8z"/>
<path d="M9631 10564 c0 -11 3 -14 6 -6 3 7 2 16 -1 19 -3 4 -6 -2 -5 -13z"/>
<path d="M9552 10510 c0 -19 2 -27 5 -17 2 9 2 25 0 35 -3 9 -5 1 -5 -18z"/>
<path d="M9642 10490 c0 -14 2 -19 5 -12 2 6 2 18 0 25 -3 6 -5 1 -5 -13z"/>
<path d="M9400 10461 c0 -6 4 -13 10 -16 6 -3 7 1 4 9 -7 18 -14 21 -14 7z"/>
<path d="M9602 10440 c0 -19 2 -27 5 -17 2 9 2 25 0 35 -3 9 -5 1 -5 -18z"/>
<path d="M9400 10393 c0 -6 8 -17 18 -24 16 -13 16 -13 2 6 -8 11 -16 22 -17
24 -2 2 -3 0 -3 -6z"/>
<path d="M9440 10352 c0 -11 27 -42 37 -42 3 0 -2 10 -13 23 -10 12 -20 24
-21 26 -2 2 -3 -1 -3 -7z"/>
<path d="M9139 10241 c-14 -16 -14 -21 -2 -37 8 -10 12 -26 10 -34 -3 -11 5
-15 26 -16 27 -1 29 0 13 11 -16 12 -16 14 2 19 21 7 38 36 22 36 -6 0 -10 -4
-10 -10 0 -13 -47 -13 -55 0 -3 6 1 17 9 26 9 8 16 17 16 20 0 9 -16 1 -31
-15z"/>
<path d="M9060 10195 c13 -15 12 -19 -6 -34 -19 -15 -19 -18 -6 -31 14 -13 15
-12 9 2 -9 25 19 44 41 27 15 -13 16 -12 3 3 -11 15 -11 19 3 24 9 3 16 11 16
16 0 6 -7 5 -16 -3 -13 -11 -19 -10 -37 1 -21 12 -21 12 -7 -5z"/>
<path d="M9117 10136 c-4 -9 -3 -15 1 -14 4 1 17 -3 29 -10 14 -8 24 -9 28 -2
3 5 -3 10 -14 10 -11 0 -24 7 -29 16 -8 15 -10 15 -15 0z"/>
<path d="M5205 10960 c-3 -5 -1 -10 4 -10 6 0 11 5 11 10 0 6 -2 10 -4 10 -3
0 -8 -4 -11 -10z"/>
<path d="M5320 10841 c0 -15 -7 -18 -44 -17 -25 1 -52 8 -60 16 -14 11 -16 10
-10 -3 3 -8 12 -18 20 -21 17 -7 18 -33 2 -39 -10 -4 -10 -6 0 -6 7 -1 17 10
22 24 11 28 37 33 47 9 3 -9 -3 -23 -16 -35 -24 -22 -29 -38 -6 -19 8 7 24 10
34 7 17 -4 18 -2 9 13 -12 19 -4 55 10 46 5 -3 7 6 4 19 -5 29 -12 33 -12 6z"/>
<path d="M5370 10827 c-8 -12 -13 -27 -12 -34 1 -6 -2 -14 -8 -18 -5 -3 -10
-11 -10 -17 0 -6 6 -6 15 2 9 7 14 21 13 30 -2 9 3 24 11 34 8 9 12 18 10 21
-3 2 -11 -6 -19 -18z"/>
<path d="M5147 10829 c7 -7 15 -10 18 -7 3 3 -2 9 -12 12 -14 6 -15 5 -6 -5z"/>
<path d="M5550 10760 c-24 -15 -7 -19 20 -5 15 8 19 14 10 14 -8 1 -22 -3 -30
-9z"/>
<path d="M5401 10744 c0 -11 3 -14 6 -6 3 7 2 16 -1 19 -3 4 -6 -2 -5 -13z"/>
<path d="M5317 10723 c-15 -15 -20 -16 -39 -4 -18 11 -20 11 -14 -4 3 -9 6
-18 6 -21 0 -2 7 -1 15 2 8 4 21 1 28 -5 11 -8 13 -6 13 11 -1 31 33 37 41 8
4 -16 8 -18 14 -9 4 8 1 18 -9 26 -23 17 -35 16 -55 -4z"/>
<path d="M5220 10720 c-8 -5 -10 -10 -5 -10 6 0 17 5 25 10 8 5 11 10 5 10 -5
0 -17 -5 -25 -10z"/>
<path d="M5476 10581 c-3 -4 7 -14 22 -20 27 -13 27 -13 8 8 -22 24 -23 24
-30 12z"/>
<path d="M8818 10582 c-37 -58 -70 -127 -83 -172 -3 -14 12 11 35 55 22 44 54
96 70 117 29 36 38 58 23 58 -5 0 -25 -26 -45 -58z"/>
<path d="M14220 9776 c0 -2 7 -35 16 -73 9 -38 14 -97 12 -133 l-3 -65 125 -3
c110 -2 152 -9 248 -38 l24 -7 -17 34 c-63 123 -218 250 -335 274 -19 3 -43 9
-52 11 -10 3 -18 3 -18 0z"/>
<path d="M14684 9393 c3 -10 10 -39 16 -64 l12 -47 59 0 c32 0 59 3 59 7 0 15
-126 121 -144 121 -4 0 -5 -8 -2 -17z"/>
<path d="M6272 9850 c0 -14 2 -19 5 -12 2 6 2 18 0 25 -3 6 -5 1 -5 -13z"/>
<path d="M6302 9525 c0 -16 2 -22 5 -12 2 9 2 23 0 30 -3 6 -5 -1 -5 -18z"/>
<path d="M6300 9471 c0 -6 4 -13 10 -16 6 -3 7 1 4 9 -7 18 -14 21 -14 7z"/>
<path d="M12151 9764 c0 -11 3 -14 6 -6 3 7 2 16 -1 19 -3 4 -6 -2 -5 -13z"/>
<path d="M12142 9680 c0 -19 2 -27 5 -17 2 9 2 25 0 35 -3 9 -5 1 -5 -18z"/>
<path d="M12132 9570 c0 -19 2 -27 5 -17 2 9 2 25 0 35 -3 9 -5 1 -5 -18z"/>
<path d="M12123 9485 c0 -22 2 -30 4 -17 2 12 2 30 0 40 -3 9 -5 -1 -4 -23z"/>
<path d="M9401 9838 c1 -18 5 -46 9 -63 6 -24 8 -17 9 33 0 35 -3 62 -9 62 -5
0 -9 -15 -9 -32z"/>
<path d="M4685 9761 c-96 -28 -245 -113 -245 -141 0 -4 33 -10 73 -12 47 -3
108 -18 177 -42 58 -20 111 -37 119 -39 8 -1 21 22 35 63 12 36 39 91 58 122
36 55 36 56 15 62 -43 11 -173 4 -232 -13z"/>
<path d="M4305 9571 c-118 -42 -134 -55 -83 -66 18 -4 43 -13 55 -21 20 -13
24 -10 55 34 60 83 60 84 -27 53z"/>
<path d="M7425 8730 c-3 -5 -1 -10 4 -10 6 0 11 5 11 10 0 6 -2 10 -4 10 -3 0
-8 -4 -11 -10z"/>
<path d="M10190 9245 c0 -1 16 -15 36 -30 31 -24 35 -25 25 -7 -6 12 -17 24
-24 29 -12 8 -37 13 -37 8z"/>
<path d="M11725 7810 c-3 -6 1 -7 9 -4 18 7 21 14 7 14 -6 0 -13 -4 -16 -10z"/>
<path d="M10989 7063 c-13 -16 -12 -17 4 -4 16 13 21 21 13 21 -2 0 -10 -8
-17 -17z"/>
<path d="M8921 7064 c0 -11 3 -14 6 -6 3 7 2 16 -1 19 -3 4 -6 -2 -5 -13z"/>
<path d="M9059 6920 c-3 -20 -9 -24 -29 -22 -13 1 -27 7 -31 13 -5 8 -8 8 -13
0 -10 -16 -37 -13 -58 6 -18 16 -18 16 -12 0 6 -17 39 -30 65 -27 37 6 49 -1
49 -25 0 -13 -8 -29 -17 -35 -17 -10 -16 -10 2 -8 11 1 26 -1 33 -5 7 -5 12
-4 12 2 0 6 -4 11 -10 11 -13 0 -13 47 0 55 6 3 20 3 31 0 16 -5 20 -13 17
-35 -4 -25 -2 -27 14 -16 10 6 14 12 8 14 -16 6 -12 27 10 47 11 10 17 22 14
27 -3 4 -13 -1 -23 -13 -21 -27 -48 -20 -53 13 -4 23 -4 23 -9 -2z"/>
<path d="M8846 6901 c5 -5 20 -12 34 -15 l25 -7 -25 15 c-28 17 -50 21 -34 7z"/>
<path d="M8961 6864 c0 -11 3 -14 6 -6 3 7 2 16 -1 19 -3 4 -6 -2 -5 -13z"/>
<path d="M8900 6833 c0 -5 15 -8 34 -8 19 0 32 3 29 8 -2 4 -17 7 -34 7 -16 0
-29 -3 -29 -7z"/>
<path d="M9090 6786 c0 -2 7 -7 16 -10 8 -3 12 -2 9 4 -6 10 -25 14 -25 6z"/>
<path d="M8934 6764 c-18 -14 -18 -14 6 -3 31 14 36 19 24 19 -6 0 -19 -7 -30
-16z"/>
<path d="M8990 6771 c0 -6 5 -11 10 -11 6 0 3 -11 -6 -25 -10 -15 -12 -25 -5
-25 6 0 11 7 11 15 0 20 27 30 43 17 9 -8 13 -6 13 7 0 12 -6 17 -18 13 -10
-2 -25 1 -33 8 -10 9 -15 9 -15 1z"/>
<path d="M8981 6464 c0 -11 3 -14 6 -6 3 7 2 16 -1 19 -3 4 -6 -2 -5 -13z"/>
<path d="M4178 7283 c6 -2 18 -2 25 0 6 3 1 5 -13 5 -14 0 -19 -2 -12 -5z"/>
<path d="M4078 7273 c7 -3 16 -2 19 1 4 3 -2 6 -13 5 -11 0 -14 -3 -6 -6z"/>
<path d="M4123 7233 c9 -2 25 -2 35 0 9 3 1 5 -18 5 -19 0 -27 -2 -17 -5z"/>
<path d="M3831 7122 c14 -23 31 -25 35 -4 2 8 0 8 -3 2 -3 -7 -12 -5 -25 7
-20 18 -21 18 -7 -5z"/>
<path d="M4253 7124 c3 -4 2 -15 -4 -26 -9 -17 -8 -18 9 -9 13 7 23 7 33 -2 7
-7 3 0 -10 16 -14 15 -27 27 -29 27 -3 0 -2 -3 1 -6z"/>
<path d="M3525 7090 c-4 -6 6 -7 27 -3 44 8 48 13 10 13 -17 0 -34 -4 -37 -10z"/>
<path d="M4141 7057 c-13 -21 -12 -21 5 -5 10 10 16 20 13 22 -3 3 -11 -5 -18
-17z"/>
<path d="M3868 6849 c16 -17 16 -59 -1 -59 -7 0 -19 6 -27 13 -12 10 -12 9 -1
-5 7 -10 11 -27 8 -39 -4 -16 -3 -18 8 -9 18 15 35 4 35 -22 0 -11 -8 -22 -20
-25 -11 -3 -20 -9 -20 -14 0 -15 12 -10 36 12 27 25 48 16 41 -18 -3 -17 -1
-21 6 -14 8 8 17 6 31 -7 18 -15 3 8 -44 65 -6 7 -4 15 6 24 11 9 18 8 34 -6
11 -10 20 -14 20 -9 0 5 12 17 28 26 15 10 21 18 15 18 -7 0 -13 6 -13 14 0 7
-16 26 -35 40 -36 28 -47 27 -20 -1 12 -11 13 -19 5 -28 -9 -11 -15 -11 -30 3
-26 24 -43 37 -60 46 -12 7 -13 6 -2 -5z m125 -80 c-8 -8 -16 -8 -30 0 -10 6
-13 11 -6 11 6 0 15 10 19 23 l7 22 10 -23 c7 -16 7 -26 0 -33z m-69 24 c4 -9
0 -23 -8 -31 -12 -13 -18 -13 -31 -2 -14 12 -14 15 2 31 23 23 29 23 37 2z"/>
<path d="M4375 6830 c9 -10 15 -26 11 -35 -4 -11 -1 -15 10 -13 25 5 41 -27
25 -46 -12 -15 -15 -15 -28 1 -13 17 -13 16 -4 -3 6 -12 7 -24 4 -28 -3 -3 -2
-6 3 -5 5 0 20 14 33 30 21 27 22 31 8 47 -11 12 -13 22 -7 32 15 24 11 37 -5
15 -15 -19 -15 -19 -31 3 -8 12 -20 22 -26 22 -6 0 -3 -9 7 -20z"/>
<path d="M3643 6789 c19 -11 23 -44 7 -54 -6 -3 -17 1 -26 10 -9 9 -19 13 -23
10 -3 -4 2 -11 12 -16 9 -6 17 -16 17 -24 0 -8 -8 -18 -17 -24 -10 -5 -15 -12
-12 -16 3 -3 23 13 43 35 22 24 42 38 49 34 7 -4 2 3 -10 15 -13 12 -23 26
-23 31 0 6 -8 10 -17 10 -17 -1 -17 -1 0 -11z"/>
<path d="M4320 6796 c0 -2 7 -7 16 -10 8 -3 12 -2 9 4 -6 10 -25 14 -25 6z"/>
<path d="M4489 6781 c12 -12 19 -27 15 -33 -5 -7 -3 -8 5 -4 9 6 9 13 -2 29
-7 11 -20 23 -27 25 -7 3 -3 -5 9 -17z"/>
<path d="M3490 6775 c7 -8 24 -14 39 -14 20 1 22 2 6 6 -11 3 -24 9 -29 14
-16 15 -29 10 -16 -6z"/>
<path d="M3990 6726 c0 -2 8 -10 18 -17 15 -13 16 -12 3 4 -13 16 -21 21 -21
13z"/>
<path d="M4475 6720 c-3 -5 -1 -10 4 -10 6 0 11 5 11 10 0 6 -2 10 -4 10 -3 0
-8 -4 -11 -10z"/>
<path d="M4355 6680 c-3 -5 -2 -10 4 -10 5 0 13 5 16 10 3 6 2 10 -4 10 -5 0
-13 -4 -16 -10z"/>
<path d="M14313 7294 c53 -19 177 -83 206 -105 28 -23 49 -25 31 -4 -28 33
-224 126 -263 124 -6 0 5 -7 26 -15z"/>
<path d="M13880 7076 c0 -2 7 -6 15 -10 8 -3 15 -1 15 4 0 6 -7 10 -15 10 -8
0 -15 -2 -15 -4z"/>
<path d="M14550 6995 c13 -17 38 -45 54 -63 28 -30 29 -33 13 -49 -23 -24 -44
-4 -28 26 7 12 8 21 2 21 -5 0 -12 -6 -15 -12 -4 -9 -10 -6 -22 10 -9 12 -23
22 -30 22 -8 0 -14 5 -14 10 0 6 -6 10 -12 10 -7 -1 -3 -9 9 -19 22 -18 22
-19 3 -36 -22 -20 -17 -42 19 -72 30 -25 50 -30 31 -8 -7 8 -9 22 -6 31 6 16
8 16 24 0 10 -9 23 -16 29 -16 6 0 13 -7 17 -15 3 -8 11 -15 18 -14 10 0 10 2
1 6 -15 5 -17 49 -4 58 5 3 12 1 16 -5 3 -5 14 -10 23 -10 14 0 13 2 -3 14
-12 9 -16 20 -12 35 4 18 3 20 -8 11 -21 -17 -37 -2 -31 29 6 25 6 25 -9 7
-15 -20 -15 -20 -29 0 -11 14 -12 23 -3 34 9 12 9 13 -3 3 -11 -10 -18 -9 -34
5 -16 12 -15 9 4 -13z m3 -91 c8 -8 -25 -44 -35 -38 -16 10 -8 44 10 44 10 0
21 -3 25 -6z"/>
<path d="M14145 6989 c-4 -6 -5 -12 -2 -15 2 -3 7 2 10 11 7 17 1 20 -8 4z"/>
<path d="M14635 6990 c3 -5 11 -10 16 -10 6 0 7 5 4 10 -3 6 -11 10 -16 10 -6
0 -7 -4 -4 -10z"/>
<path d="M14060 6986 c0 -2 8 -10 18 -17 15 -13 16 -12 3 4 -13 16 -21 21 -21
13z"/>
<path d="M14087 6934 c-13 -17 -25 -23 -35 -19 -10 4 -6 -5 10 -22 21 -22 25
-32 17 -46 -7 -11 -15 -15 -23 -10 -6 4 -3 0 7 -9 26 -24 12 -24 -115 7 -111
26 -288 43 -288 27 0 -25 30 -35 69 -23 47 14 64 14 56 1 -3 -5 -13 -6 -22 -3
-11 4 -14 3 -9 -6 5 -7 14 -10 22 -7 18 7 122 -11 152 -26 17 -9 25 -9 34 0 8
8 5 9 -11 5 -15 -4 -21 -1 -21 12 0 13 5 15 18 10 9 -4 29 -10 45 -13 15 -2
30 -9 34 -15 4 -6 -4 -7 -23 -3 -22 6 -26 5 -18 -4 7 -6 22 -10 35 -8 17 2 34
-8 60 -34 20 -21 41 -38 46 -38 5 0 24 -14 42 -31 47 -43 108 -49 149 -14 34
29 53 33 29 8 -14 -17 -13 -18 25 -20 22 -2 47 -8 54 -14 8 -6 22 -8 31 -4 10
4 33 9 51 11 17 2 49 7 70 10 20 3 62 7 92 8 44 1 64 8 92 30 38 29 112 55
157 57 24 1 24 2 -9 16 -63 28 -154 31 -350 11 -196 -20 -277 -18 -397 9 -58
13 -73 20 -73 34 0 10 5 21 10 24 6 3 10 2 10 -4 0 -6 10 -16 23 -22 21 -12
21 -11 5 8 -22 24 -23 37 -3 53 8 7 15 17 15 22 0 5 -10 0 -22 -11 -16 -16
-25 -18 -35 -10 -16 14 -17 31 -1 47 9 9 15 7 25 -6 13 -15 13 -15 4 4 -6 12
-7 24 -4 28 3 3 2 6 -3 6 -5 0 -17 -12 -27 -26z m-367 -84 c0 -5 -8 -10 -17
-10 -15 0 -16 2 -3 10 19 12 20 12 20 0z m130 -10 c0 -5 -7 -10 -15 -10 -8 0
-15 5 -15 10 0 6 7 10 15 10 8 0 15 -4 15 -10z m55 -10 c3 -5 -1 -10 -9 -10
-8 0 -18 5 -21 10 -3 6 1 10 9 10 8 0 18 -4 21 -10z m205 -50 c24 -8 24 -8 -7
-9 -17 -1 -35 4 -38 9 -7 11 9 11 45 0z m645 -17 c-42 -22 -66 -44 -76 -71
-12 -32 -35 -22 -32 14 3 41 47 74 98 74 l40 -1 -30 -16z m-555 2 c0 -4 -62
-33 -77 -35 -18 -3 -11 18 9 28 24 11 68 16 68 7z m386 -14 c-9 -10 -20 -35
-23 -55 -7 -46 -33 -49 -33 -3 0 37 7 49 35 65 30 17 40 14 21 -7z m60 -6 c-9
-13 -16 -31 -16 -38 0 -23 -34 -49 -48 -35 -8 8 -7 19 5 42 23 46 33 56 55 56
19 0 19 -1 4 -25z m244 21 c0 -2 -24 -12 -54 -21 -30 -9 -68 -30 -86 -46 -25
-23 -35 -27 -46 -18 -19 16 -11 25 54 59 48 24 132 41 132 26z m-640 -15 c0
-5 -8 -12 -19 -16 -10 -3 -26 -14 -36 -25 -16 -18 -45 -17 -45 1 0 13 61 49
83 49 9 0 17 -4 17 -9z m274 -8 c-4 -10 -9 -35 -12 -55 -7 -63 -39 -42 -33 22
4 44 7 50 33 50 15 0 18 -4 12 -17z m-209 -3 c-4 -6 -24 -19 -46 -30 -21 -11
-39 -27 -39 -35 0 -8 -7 -15 -15 -15 -37 0 2 59 54 82 25 10 53 9 46 -2z m38
-21 c-18 -30 -69 -69 -92 -69 -22 0 -11 30 17 44 15 8 36 23 46 35 11 12 25
21 33 21 11 0 10 -6 -4 -31z m55 -11 c-2 -30 -8 -43 -18 -43 -18 0 -21 41 -6
68 18 29 27 19 24 -25z m54 -8 c3 -50 -7 -66 -31 -50 -9 5 -11 21 -6 54 10 63
32 61 37 -4z"/>
<path d="M14675 6950 c3 -5 11 -10 16 -10 6 0 7 5 4 10 -3 6 -11 10 -16 10 -6
0 -7 -4 -4 -10z"/>
<path d="M14960 6919 c0 -5 5 -7 10 -4 6 4 22 -1 35 -9 14 -9 25 -12 25 -7 0
12 -33 31 -54 31 -9 0 -16 -5 -16 -11z"/>
<path d="M14032 6875 c-10 -12 -10 -15 2 -15 7 0 16 7 20 15 7 19 -5 19 -22 0z"/>
<path d="M14165 6870 c3 -5 8 -10 11 -10 2 0 4 5 4 10 0 6 -5 10 -11 10 -5 0
-7 -4 -4 -10z"/>
<path d="M15120 6811 c0 -6 4 -13 10 -16 6 -3 7 1 4 9 -7 18 -14 21 -14 7z"/>
<path d="M15160 6701 c0 -6 4 -13 10 -16 6 -3 7 1 4 9 -7 18 -14 21 -14 7z"/>
<path d="M14227 6623 c-10 -9 -9 -51 2 -57 4 -3 6 6 3 20 -3 16 1 30 9 35 8 5
9 9 3 9 -6 0 -14 -3 -17 -7z"/>
<path d="M14375 6620 c-3 -6 1 -7 9 -4 18 7 21 14 7 14 -6 0 -13 -4 -16 -10z"/>
<path d="M14960 6601 c-25 -4 -30 -8 -18 -13 19 -8 58 1 58 13 0 5 -1 8 -2 8
-2 -1 -19 -4 -38 -8z"/>
<path d="M14262 6578 c-7 -7 -12 -17 -12 -22 0 -6 7 -3 15 8 8 10 19 15 26 10
8 -4 10 -3 5 4 -9 15 -19 15 -34 0z"/>
<path d="M14657 6567 c-3 -7 3 -13 13 -13 10 0 16 6 13 13 -3 7 -9 13 -13 13
-4 0 -10 -6 -13 -13z"/>
<path d="M14413 6433 c9 -2 25 -2 35 0 9 3 1 5 -18 5 -19 0 -27 -2 -17 -5z"/>
<path d="M14498 6403 c7 -3 16 -2 19 1 4 3 -2 6 -13 5 -11 0 -14 -3 -6 -6z"/>
<path d="M14448 6393 c7 -3 16 -2 19 1 4 3 -2 6 -13 5 -11 0 -14 -3 -6 -6z"/>
<path d="M14353 6383 c9 -2 23 -2 30 0 6 3 -1 5 -18 5 -16 0 -22 -2 -12 -5z"/>
<path d="M13690 6599 c-16 -5 1 -6 45 -2 39 3 72 7 74 9 8 8 -95 2 -119 -7z"/>
<path d="M4600 6580 c8 -5 20 -10 25 -10 6 0 3 5 -5 10 -8 5 -19 10 -25 10 -5
0 -3 -5 5 -10z"/>
<path d="M4703 6553 c15 -2 37 -2 50 0 12 2 0 4 -28 4 -27 0 -38 -2 -22 -4z"/>
<path d="M3950 6492 c0 -11 94 -70 153 -97 93 -42 104 -37 17 7 -47 24 -101
55 -121 71 -37 28 -49 33 -49 19z"/>
<path d="M10390 4428 c-12 -22 -12 -22 6 -6 10 10 15 20 12 24 -4 3 -12 -5
-18 -18z"/>
<path d="M6302 4130 c0 -19 2 -27 5 -17 2 9 2 25 0 35 -3 9 -5 1 -5 -18z"/>
<path d="M6282 3910 c0 -14 2 -19 5 -12 2 6 2 18 0 25 -3 6 -5 1 -5 -13z"/>
<path d="M6272 3815 c0 -16 2 -22 5 -12 2 9 2 23 0 30 -3 6 -5 -1 -5 -18z"/>
<path d="M3991 4411 l-54 -18 30 -21 c28 -20 124 -62 142 -62 5 0 -6 27 -23
60 -17 33 -33 59 -36 59 -3 -1 -29 -9 -59 -18z"/>
<path d="M4465 4302 c-67 -18 -117 -25 -192 -26 -57 0 -103 -4 -103 -8 0 -3
26 -30 58 -58 64 -58 190 -123 270 -139 62 -13 139 -14 146 -3 2 4 -8 35 -24
68 -16 33 -35 90 -42 127 -7 37 -15 66 -18 66 -3 -1 -45 -13 -95 -27z"/>
<path d="M9111 5554 c0 -11 3 -14 6 -6 3 7 2 16 -1 19 -3 4 -6 -2 -5 -13z"/>
<path d="M9111 5514 c0 -11 3 -14 6 -6 3 7 2 16 -1 19 -3 4 -6 -2 -5 -13z"/>
<path d="M13889 4149 c-11 -23 -49 -71 -84 -107 l-63 -64 42 -18 c125 -55 290
-49 435 17 l56 26 -55 17 c-73 22 -129 52 -223 116 -43 30 -80 54 -83 54 -2 0
-13 -19 -25 -41z"/>
<path d="M14373 4061 c-24 -21 -43 -42 -43 -46 0 -4 35 -4 78 -1 84 8 112 14
112 24 -1 9 -84 62 -96 62 -5 -1 -28 -18 -51 -39z"/>
<path d="M11991 5144 c0 -11 3 -14 6 -6 3 7 2 16 -1 19 -3 4 -6 -2 -5 -13z"/>
<path d="M12122 4150 c0 -14 2 -19 5 -12 2 6 2 18 0 25 -3 6 -5 1 -5 -13z"/>
<path d="M12132 4080 c0 -14 2 -19 5 -12 2 6 2 18 0 25 -3 6 -5 1 -5 -13z"/>
<path d="M12142 3965 c0 -16 2 -22 5 -12 2 9 2 23 0 30 -3 6 -5 -1 -5 -18z"/>
<path d="M7320 4975 c19 -19 36 -35 39 -35 3 0 -10 16 -29 35 -19 19 -36 35
-39 35 -3 0 10 -16 29 -35z"/>
<path d="M7385 4910 c3 -5 11 -10 16 -10 6 0 7 5 4 10 -3 6 -11 10 -16 10 -6
0 -7 -4 -4 -10z"/>
<path d="M7420 4886 c0 -2 8 -10 18 -17 15 -13 16 -12 3 4 -13 16 -21 21 -21
13z"/>
<path d="M9110 3583 c0 -6 -10 -13 -21 -16 -17 -5 -20 -11 -16 -32 3 -21 -2
-34 -26 -56 -16 -16 -34 -29 -38 -29 -5 0 -9 -6 -9 -14 0 -8 -16 -32 -35 -53
-19 -21 -34 -45 -33 -53 1 -8 -1 -20 -5 -27 -8 -13 15 -67 33 -78 5 -3 10 -11
10 -17 0 -6 -7 -5 -17 3 -12 10 -15 11 -9 1 4 -7 2 -19 -4 -27 -6 -8 -9 -19
-5 -25 4 -6 2 -17 -5 -24 -8 -10 -8 -36 -1 -92 5 -43 8 -81 5 -85 -2 -4 1 -11
7 -14 6 -4 8 -18 4 -34 -6 -24 -5 -25 8 -7 13 17 15 17 45 2 37 -19 62 -52 62
-83 0 -31 -12 -29 -39 8 -31 41 -63 53 -74 26 -5 -15 2 -34 29 -73 30 -43 38
-66 43 -116 7 -69 10 -68 36 12 16 48 17 72 9 215 -14 247 -11 419 9 495 19
67 33 86 54 68 10 -8 8 -14 -10 -30 l-22 -19 23 11 c13 6 30 9 39 6 10 -4 13
-2 10 8 -8 21 18 39 45 31 22 -7 22 -6 4 7 -12 10 -16 20 -11 29 4 8 -6 1 -23
-15 -27 -25 -34 -27 -48 -16 -15 13 -14 15 1 26 9 7 24 10 33 7 15 -4 15 -3 2
6 -13 10 -12 13 5 27 18 14 21 13 38 -7 9 -12 17 -17 17 -12 0 6 -9 18 -20 28
-19 17 -21 16 -65 -28 -48 -48 -54 -44 -34 26 6 22 8 41 5 45 -3 3 -6 1 -6 -5z
m-19 -56 c-8 -8 -11 -7 -11 4 0 20 13 34 18 19 3 -7 -1 -17 -7 -23z m-18 -78
c-6 -32 -7 -33 -13 -9 -4 14 -2 31 3 38 15 19 18 9 10 -29z m-13 -75 c0 -25
-15 -14 -32 23 -13 28 -15 39 -6 44 12 8 38 -38 38 -67z m-27 -12 c11 -19 16
-40 12 -50 -6 -16 -7 -15 -17 3 -6 11 -20 30 -30 42 -20 21 -16 47 5 40 7 -2
20 -18 30 -35z m-30 -39 c28 -42 48 -101 29 -89 -6 4 -21 24 -33 45 -12 22
-30 42 -40 44 -13 3 -17 11 -13 21 10 26 30 19 57 -21z m-27 -35 c4 -13 17
-36 29 -53 32 -43 37 -55 27 -55 -20 0 -92 83 -92 106 0 31 26 32 36 2z m42
-120 c20 -20 14 -28 -22 -28 -33 0 -62 20 -49 33 11 11 58 8 71 -5z m-4 -44
c9 -3 16 -12 16 -20 0 -10 -14 -14 -50 -14 -43 0 -50 3 -50 20 0 16 7 20 34
20 19 0 41 -3 50 -6z m18 -60 c4 -3 8 -14 8 -24 0 -17 -2 -18 -26 -5 -14 7
-37 11 -50 9 -19 -4 -24 0 -24 17 0 20 4 21 42 15 22 -4 45 -9 50 -12z m1 -62
c17 -15 24 -42 10 -42 -5 0 -17 7 -27 15 -11 8 -32 15 -48 15 -27 0 -37 17
-21 34 10 10 65 -4 86 -22z m-13 -51 c14 -10 26 -27 28 -39 3 -20 1 -20 -47 6
-33 17 -51 34 -51 45 0 22 29 16 70 -12z m-2 -160 c34 -72 38 -96 22 -121 -8
-12 -10 -9 -10 11 0 36 -24 90 -55 128 -26 30 -26 51 -1 51 7 0 27 -31 44 -69z"/>
<path d="M9255 3470 c-3 -6 1 -7 9 -4 18 7 21 14 7 14 -6 0 -13 -4 -16 -10z"/>
<path d="M9209 3433 c-13 -15 -12 -15 7 -5 12 6 24 8 28 5 3 -3 6 -1 6 5 0 18
-25 14 -41 -5z"/>
<path d="M9164 3388 l-19 -23 23 19 c12 11 22 21 22 23 0 8 -8 2 -26 -19z"/>
<path d="M9260 3406 c0 -2 7 -7 16 -10 8 -3 12 -2 9 4 -6 10 -25 14 -25 6z"/>
<path d="M8895 3250 c3 -5 8 -10 11 -10 2 0 4 5 4 10 0 6 -5 10 -11 10 -5 0
-7 -4 -4 -10z"/>
<path d="M8661 3224 c0 -11 3 -14 6 -6 3 7 2 16 -1 19 -3 4 -6 -2 -5 -13z"/>
<path d="M8712 3195 c0 -16 2 -22 5 -12 2 9 2 23 0 30 -3 6 -5 -1 -5 -18z"/>
<path d="M8875 3190 c-3 -5 -1 -10 4 -10 6 0 11 5 11 10 0 6 -2 10 -4 10 -3 0
-8 -4 -11 -10z"/>
<path d="M8672 3140 c0 -14 2 -19 5 -12 2 6 2 18 0 25 -3 6 -5 1 -5 -13z"/>
<path d="M8681 3064 c0 -11 3 -14 6 -6 3 7 2 16 -1 19 -3 4 -6 -2 -5 -13z"/>
<path d="M9174 3065 c-4 -8 -12 -15 -18 -15 -7 0 -22 -13 -34 -30 -24 -31 -30
-52 -10 -32 14 14 48 16 48 3 0 -5 -7 -14 -15 -21 -8 -7 -15 -18 -15 -25 0 -7
-7 -15 -15 -19 -8 -3 -15 -11 -14 -18 0 -10 2 -10 6 0 5 14 49 16 58 3 3 -5 1
-12 -5 -16 -5 -3 -10 -14 -10 -23 1 -15 2 -15 11 1 8 14 18 17 37 13 25 -6 25
-5 9 8 -15 12 -15 15 -3 26 9 6 25 9 38 5 23 -6 23 -6 3 11 -16 13 -17 17 -6
21 8 3 27 18 43 33 26 25 27 28 11 41 -9 8 -14 9 -10 2 9 -14 -2 -43 -16 -43
-6 0 -28 -17 -49 -37 -36 -35 -39 -36 -55 -20 -14 13 -15 19 -5 29 10 10 17
10 32 0 11 -7 20 -8 20 -3 0 5 -6 12 -12 15 -9 3 -6 11 10 24 12 11 22 26 22
34 0 10 -2 10 -8 1 -6 -9 -12 -7 -25 8 -10 11 -15 24 -12 29 4 6 4 10 0 10 -3
0 -8 -7 -11 -15z m14 -37 c8 -8 8 -15 1 -24 -8 -10 -14 -9 -29 3 -20 17 -18
33 4 33 6 0 17 -5 24 -12z"/>
<path d="M9240 3049 c0 -5 5 -7 10 -4 6 3 10 8 10 11 0 2 -4 4 -10 4 -5 0 -10
-5 -10 -11z"/>
<path d="M9267 2913 c-4 -3 -7 -11 -7 -17 0 -6 5 -5 12 2 6 6 9 14 7 17 -3 3
-9 2 -12 -2z"/>
<path d="M8836 2881 c-17 -19 -17 -19 3 -14 12 3 21 12 21 19 0 18 -4 18 -24
-5z"/>
<path d="M9220 2859 c0 -5 5 -7 10 -4 6 3 10 8 10 11 0 2 -4 4 -10 4 -5 0 -10
-5 -10 -11z"/>
<path d="M9195 2840 c-3 -5 -1 -10 4 -10 6 0 11 5 11 10 0 6 -2 10 -4 10 -3 0
-8 -4 -11 -10z"/>
<path d="M9240 2746 c0 -2 7 -7 16 -10 8 -3 12 -2 9 4 -6 10 -25 14 -25 6z"/>
<path d="M8860 2596 c0 -14 4 -27 8 -30 5 -3 6 8 4 25 -5 35 -12 38 -12 5z"/>
<path d="M9191 2573 c0 -12 -5 -25 -11 -28 -5 -3 -10 -11 -10 -18 0 -7 6 -5
16 5 9 9 14 26 11 39 -4 23 -4 23 -6 2z"/>
<path d="M9366 3665 c-9 -26 -7 -32 5 -12 6 10 9 21 6 23 -2 3 -7 -2 -11 -11z"/>
<path d="M5317 3511 c3 -11 9 -18 14 -16 4 3 12 -3 18 -12 5 -10 12 -15 15
-12 3 3 -7 18 -24 34 -26 25 -28 25 -23 6z"/>
<path d="M5320 3471 c0 -5 5 -13 10 -16 6 -3 10 -2 10 4 0 5 -4 13 -10 16 -5
3 -10 2 -10 -4z"/>
<path d="M5336 3357 c3 -10 9 -15 12 -12 3 3 0 11 -7 18 -10 9 -11 8 -5 -6z"/>
<path d="M5396 3347 c3 -10 9 -15 12 -12 3 3 0 11 -7 18 -10 9 -11 8 -5 -6z"/>
<path d="M5298 3319 c25 -28 28 -45 10 -52 -10 -4 -10 -6 0 -6 7 -1 17 10 22
24 10 27 17 30 40 15 8 -5 19 -5 25 0 16 14 39 -5 33 -28 -4 -15 -2 -19 8 -15
9 3 12 13 9 23 -3 9 1 23 10 30 8 7 15 17 15 23 0 5 -8 1 -18 -11 -13 -15 -22
-18 -35 -11 -9 6 -22 7 -27 4 -5 -3 -18 -1 -28 4 -13 7 -22 7 -30 -1 -9 -9
-17 -7 -34 8 l-23 19 23 -26z"/>
<path d="M5230 3315 c14 -8 30 -14 35 -14 6 0 -1 6 -15 14 -14 8 -29 14 -35
14 -5 0 1 -6 15 -14z"/>
<path d="M5610 3300 c0 -6 17 -10 37 -10 43 0 41 5 -4 13 -19 4 -33 2 -33 -3z"/>
<path d="M5478 3279 c-17 -18 -17 -19 0 -19 11 0 18 8 19 20 2 24 3 24 -19 -1z"/>
<path d="M5361 3261 c-9 -6 -4 -10 16 -14 34 -6 41 -2 16 11 -11 6 -25 7 -32
3z"/>
<path d="M5607 3251 c3 -13 1 -21 -8 -21 -7 0 -10 -2 -7 -5 3 -3 27 6 53 20
41 21 44 25 22 25 -14 0 -29 -5 -32 -10 -5 -8 -11 -8 -20 0 -11 9 -12 7 -8 -9z"/>
<path d="M5431 3218 c9 -7 18 -20 21 -27 4 -13 5 -12 10 1 4 11 -2 19 -20 27
-22 9 -24 9 -11 -1z"/>
<path d="M5300 3210 c-8 -5 -12 -11 -10 -14 3 -2 14 2 24 10 22 15 10 19 -14
4z"/>
<path d="M5343 3189 c0 -25 2 -26 13 -11 11 15 16 15 34 4 12 -8 19 -9 16 -3
-4 5 -19 16 -35 24 -27 13 -28 13 -28 -14z"/>
<path d="M5570 3100 c0 -5 5 -10 10 -10 6 0 10 5 10 10 0 6 -4 10 -10 10 -5 0
-10 -4 -10 -10z"/>
<path d="M13100 3400 c0 -8 5 -22 10 -30 5 -8 10 -11 10 -6 0 5 8 2 18 -6 9
-8 24 -18 32 -22 8 -4 4 2 -10 14 -14 12 -33 31 -42 43 -13 16 -18 18 -18 7z"/>
<path d="M13110 3340 c0 -5 5 -10 10 -10 6 0 10 5 10 10 0 6 -4 10 -10 10 -5
0 -10 -4 -10 -10z"/>
<path d="M13338 3294 c-3 -24 -1 -31 9 -27 15 6 15 9 4 38 -7 17 -9 16 -13
-11z"/>
<path d="M12980 3249 c-14 -6 -38 -8 -55 -5 l-30 5 30 -14 c30 -13 46 -11 80
12 23 15 11 16 -25 2z"/>
<path d="M13121 3233 c7 -12 15 -20 18 -17 3 2 -3 12 -13 22 -17 16 -18 16 -5
-5z"/>
<path d="M13070 3206 c0 -2 8 -10 18 -17 15 -13 16 -12 3 4 -13 16 -21 21 -21
13z"/>
<path d="M13238 3191 c-8 -12 -17 -19 -19 -17 -2 2 -4 -8 -4 -23 0 -24 3 -26
17 -17 12 7 14 12 5 18 -8 5 -6 13 8 27 10 12 16 24 13 27 -3 3 -12 -4 -20
-15z"/>
<path d="M13010 3190 c0 -6 7 -10 15 -10 8 0 15 2 15 4 0 2 -7 6 -15 10 -8 3
-15 1 -15 -4z"/>
<path d="M13120 3185 c-6 -8 -10 -20 -7 -27 3 -8 6 -5 6 6 1 15 6 17 29 13 15
-3 34 -1 42 5 12 8 11 9 -3 4 -10 -3 -27 -2 -37 4 -13 7 -21 6 -30 -5z"/>
<path d="M13265 3140 c-3 -5 -1 -10 4 -10 6 0 11 5 11 10 0 6 -2 10 -4 10 -3
0 -8 -4 -11 -10z"/>
<path d="M13060 3131 c0 -4 11 -6 25 -3 14 2 25 6 25 8 0 2 -11 4 -25 4 -14 0
-25 -4 -25 -9z"/>
<path d="M13167 3129 c7 -7 15 -10 18 -7 3 3 -2 9 -12 12 -14 6 -15 5 -6 -5z"/>
<path d="M13223 3093 c11 -12 16 -27 12 -32 -3 -6 -4 -11 -1 -11 3 0 11 10 17
23 6 12 8 19 4 14 -5 -4 -18 1 -29 10 -21 18 -21 18 -3 -4z"/>
<path d="M13090 3080 c-8 -5 -10 -10 -5 -10 6 0 17 5 25 10 8 5 11 10 5 10 -5
0 -17 -5 -25 -10z"/>
<path d="M13134 3073 c4 -9 -1 -24 -10 -34 -10 -11 -14 -19 -11 -19 3 0 16 10
27 22 18 20 23 21 41 9 12 -7 18 -8 15 -2 -4 5 -20 17 -37 25 -28 14 -30 14
-25 -1z"/>
<path d="M13365 2981 c-3 -5 -1 -12 5 -16 5 -3 10 1 10 9 0 18 -6 21 -15 7z"/>
<path d="M12018 2765 c-40 -27 -146 -65 -179 -65 -16 0 -20 -4 -14 -17 42
-111 77 -290 68 -351 l-6 -37 40 37 c93 90 152 233 153 371 0 97 -3 100 -62
62z"/>
<path d="M11843 2238 c-7 -8 -31 -23 -53 -33 -22 -10 -40 -23 -40 -29 1 -6 9
-36 20 -66 l19 -55 36 78 c35 76 46 140 18 105z"/>
<path d="M6365 2763 c-9 -24 -6 -119 6 -175 6 -29 26 -84 44 -123 31 -68 107
-175 124 -175 4 0 11 39 14 88 3 51 16 124 32 177 15 50 29 97 32 105 3 12 -9
19 -49 29 -29 7 -85 30 -125 51 -57 29 -73 34 -78 23z"/>
<path d="M6580 2215 c0 -23 69 -169 77 -162 3 4 14 29 23 57 l17 50 -32 19
c-17 10 -44 26 -58 36 -25 16 -27 16 -27 0z"/>
</g>
</svg>
